G04*
G04 #@! TF.GenerationSoftware,Altium Limited,Altium Designer,24.8.2 (39)*
G04*
G04 Layer_Color=16711935*
%FSLAX44Y44*%
%MOMM*%
G71*
G04*
G04 #@! TF.SameCoordinates,F9089647-E578-4EC2-B09E-D5C07AF86723*
G04*
G04*
G04 #@! TF.FilePolarity,Negative*
G04*
G01*
G75*
%ADD47C,1.1032*%
%ADD48C,1.5032*%
%ADD49C,2.6032*%
%ADD50R,1.4500X1.4500*%
%ADD51C,1.4500*%
%ADD52C,1.8034*%
%ADD53C,1.2700*%
%ADD54C,1.4986*%
%ADD55C,1.4732*%
D47*
X356510Y65920D02*
D03*
D48*
Y315920D02*
D03*
D49*
X837370Y311360D02*
D03*
Y70910D02*
D03*
D50*
X1004970Y96520D02*
D03*
D51*
X1054970D02*
D03*
D52*
X1083310Y534670D02*
D03*
X1133310D02*
D03*
D53*
X144780Y556260D02*
D03*
X170180D02*
D03*
X195580D02*
D03*
X220980D02*
D03*
X297180D02*
D03*
X322580D02*
D03*
X271780D02*
D03*
X246380D02*
D03*
D54*
X55880Y554990D02*
D03*
X81280D02*
D03*
X30480D02*
D03*
D55*
X138430Y66040D02*
D03*
X213360Y44450D02*
D03*
X31750Y391160D02*
D03*
X19050Y39370D02*
D03*
X115570D02*
D03*
X95250Y123190D02*
D03*
X118110D02*
D03*
X44450Y373380D02*
D03*
X107950Y374650D02*
D03*
X146050Y392430D02*
D03*
X78740Y347980D02*
D03*
X133350Y365760D02*
D03*
X114300Y549910D02*
D03*
X194310Y521970D02*
D03*
X29210Y527050D02*
D03*
X64770Y119380D02*
D03*
X13970Y129540D02*
D03*
X36830Y120650D02*
D03*
X434340Y276860D02*
D03*
X444500Y449580D02*
D03*
X295910Y478790D02*
D03*
X297180Y417830D02*
D03*
X426720Y438150D02*
D03*
X298450Y453390D02*
D03*
X424180Y297180D02*
D03*
Y469900D02*
D03*
X689610Y532130D02*
D03*
X1021080Y458470D02*
D03*
X880110Y406400D02*
D03*
X795020Y443230D02*
D03*
X472440Y487680D02*
D03*
X468630Y547370D02*
D03*
X655320Y426720D02*
D03*
X358140Y487680D02*
D03*
X354330Y430530D02*
D03*
X824230Y490220D02*
D03*
X1060450Y455930D02*
D03*
X1040130Y383540D02*
D03*
X210820Y278130D02*
D03*
X99060Y251460D02*
D03*
X104140Y184150D02*
D03*
X76200Y182880D02*
D03*
X101600Y355600D02*
D03*
X153670Y344170D02*
D03*
X134620Y345440D02*
D03*
X966470Y398780D02*
D03*
Y431800D02*
D03*
X880110Y466330D02*
D03*
Y432040D02*
D03*
X210820Y259080D02*
D03*
X245110Y304800D02*
D03*
X254000Y255270D02*
D03*
X212090Y166370D02*
D03*
X293370Y209550D02*
D03*
X445770Y195580D02*
D03*
X469900Y187960D02*
D03*
X452120Y81280D02*
D03*
X419343Y200903D02*
D03*
X420370Y113030D02*
D03*
X419100Y58420D02*
D03*
X293370Y118110D02*
D03*
X288290Y140970D02*
D03*
Y173990D02*
D03*
X292100Y276860D02*
D03*
X293370Y322580D02*
D03*
X13970Y344170D02*
D03*
X881380Y373380D02*
D03*
X984250Y532130D02*
D03*
X773430Y553720D02*
D03*
X438792Y320943D02*
D03*
M02*
