G04*
G04 #@! TF.GenerationSoftware,Altium Limited,Altium Designer,24.8.2 (39)*
G04*
G04 Layer_Color=8421504*
%FSLAX44Y44*%
%MOMM*%
G71*
G04*
G04 #@! TF.SameCoordinates,F9089647-E578-4EC2-B09E-D5C07AF86723*
G04*
G04*
G04 #@! TF.FilePolarity,Positive*
G04*
G01*
G75*
%ADD18R,1.3355X2.1355*%
%ADD19R,0.9581X3.3062*%
%ADD20R,1.3562X1.0546*%
%ADD21R,1.0546X1.3562*%
%ADD22R,3.3062X0.9581*%
%ADD23R,0.8636X2.0066*%
%ADD24R,0.8890X0.8890*%
%ADD25R,0.8890X1.4986*%
%ADD26R,1.4986X0.8890*%
G04:AMPARAMS|DCode=27|XSize=2.3531mm|YSize=0.6221mm|CornerRadius=0.3111mm|HoleSize=0mm|Usage=FLASHONLY|Rotation=180.000|XOffset=0mm|YOffset=0mm|HoleType=Round|Shape=RoundedRectangle|*
%AMROUNDEDRECTD27*
21,1,2.3531,0.0000,0,0,180.0*
21,1,1.7310,0.6221,0,0,180.0*
1,1,0.6221,-0.8655,0.0000*
1,1,0.6221,0.8655,0.0000*
1,1,0.6221,0.8655,0.0000*
1,1,0.6221,-0.8655,0.0000*
%
%ADD27ROUNDEDRECTD27*%
%ADD28R,2.8500X6.6000*%
%ADD29R,3.2000X2.3000*%
%ADD30R,2.0000X0.6000*%
%ADD31R,0.7581X0.8121*%
%ADD32R,1.4546X1.5562*%
%ADD33R,1.2546X1.4562*%
%ADD34R,0.6000X0.8000*%
%ADD35R,0.8000X0.8500*%
%ADD36R,0.4200X1.4000*%
%ADD37R,0.8700X1.4000*%
%ADD38R,0.4000X1.5000*%
%ADD39R,0.7500X0.9000*%
%ADD40R,0.9000X0.7500*%
%ADD41R,0.9779X0.6096*%
%ADD42R,2.3531X0.6221*%
%ADD43R,1.6038X2.8550*%
D18*
X826770Y534670D02*
D03*
D19*
X23050Y77470D02*
D03*
X81090D02*
D03*
X34480Y30480D02*
D03*
X92520D02*
D03*
X137350D02*
D03*
X195390D02*
D03*
X371030Y560070D02*
D03*
X429070D02*
D03*
X1080960Y427990D02*
D03*
X1139000D02*
D03*
X905700Y549910D02*
D03*
X963740D02*
D03*
D20*
X135890Y108858D02*
D03*
Y94342D02*
D03*
X166370Y83458D02*
D03*
Y68942D02*
D03*
X720090Y513442D02*
D03*
Y527958D02*
D03*
X937260Y422548D02*
D03*
Y408032D02*
D03*
X850900Y455808D02*
D03*
Y441292D02*
D03*
Y398418D02*
D03*
Y383902D02*
D03*
D21*
X99422Y77470D02*
D03*
X113938D02*
D03*
D22*
X107950Y450660D02*
D03*
Y392620D02*
D03*
Y529400D02*
D03*
Y471360D02*
D03*
X1005840Y441770D02*
D03*
Y383730D02*
D03*
D23*
X148950Y418719D02*
D03*
X193950D02*
D03*
Y495681D02*
D03*
X148950D02*
D03*
X65680Y418719D02*
D03*
X20680D02*
D03*
Y495681D02*
D03*
X65680D02*
D03*
D24*
X104170Y222220D02*
D03*
Y236220D02*
D03*
Y208220D02*
D03*
X90170Y236220D02*
D03*
X76170D02*
D03*
X90170Y208220D02*
D03*
X76170Y222220D02*
D03*
X90170D02*
D03*
X76170Y208220D02*
D03*
D25*
X12970Y324720D02*
D03*
Y149720D02*
D03*
X25670D02*
D03*
Y324720D02*
D03*
X38370D02*
D03*
X51070D02*
D03*
X63770D02*
D03*
X76470D02*
D03*
X89170D02*
D03*
X101870D02*
D03*
X114570D02*
D03*
X127270D02*
D03*
X139970D02*
D03*
X152670D02*
D03*
X165370D02*
D03*
X178070D02*
D03*
Y149720D02*
D03*
X165370D02*
D03*
X152670D02*
D03*
X139970D02*
D03*
X127270D02*
D03*
X114570D02*
D03*
X101870D02*
D03*
X89170D02*
D03*
X76470D02*
D03*
X63770D02*
D03*
X51070D02*
D03*
X38370D02*
D03*
D26*
X190570Y307070D02*
D03*
Y294370D02*
D03*
Y281670D02*
D03*
Y268970D02*
D03*
Y256270D02*
D03*
Y243570D02*
D03*
Y230870D02*
D03*
Y218170D02*
D03*
Y205470D02*
D03*
Y192770D02*
D03*
Y180070D02*
D03*
Y167370D02*
D03*
D27*
X802004Y528320D02*
D03*
Y515620D02*
D03*
X851535Y528320D02*
D03*
Y541020D02*
D03*
Y553720D02*
D03*
X802004D02*
D03*
Y541020D02*
D03*
D28*
X708350Y445770D02*
D03*
X764850D02*
D03*
D29*
X321510Y44420D02*
D03*
Y337420D02*
D03*
D30*
X397510Y248920D02*
D03*
Y256920D02*
D03*
Y264920D02*
D03*
Y272920D02*
D03*
Y280920D02*
D03*
Y288920D02*
D03*
Y200920D02*
D03*
Y192920D02*
D03*
Y184920D02*
D03*
Y168920D02*
D03*
Y160920D02*
D03*
Y152920D02*
D03*
Y136920D02*
D03*
Y128920D02*
D03*
Y112920D02*
D03*
Y104920D02*
D03*
Y96920D02*
D03*
Y88920D02*
D03*
X315510Y76920D02*
D03*
Y84920D02*
D03*
Y92920D02*
D03*
Y100920D02*
D03*
Y148920D02*
D03*
Y156920D02*
D03*
Y180920D02*
D03*
Y188920D02*
D03*
Y204920D02*
D03*
Y308920D02*
D03*
Y300920D02*
D03*
Y292920D02*
D03*
Y284920D02*
D03*
Y268920D02*
D03*
Y260920D02*
D03*
Y212920D02*
D03*
Y124920D02*
D03*
Y116920D02*
D03*
X397510Y72920D02*
D03*
Y304920D02*
D03*
X315510Y132920D02*
D03*
Y108920D02*
D03*
Y164920D02*
D03*
Y172920D02*
D03*
Y140920D02*
D03*
Y196920D02*
D03*
Y252920D02*
D03*
Y276920D02*
D03*
X397510Y80920D02*
D03*
Y120920D02*
D03*
Y296920D02*
D03*
Y176920D02*
D03*
Y144920D02*
D03*
Y208920D02*
D03*
D31*
X712550Y553720D02*
D03*
X725090D02*
D03*
D32*
X999122Y557530D02*
D03*
X1017638D02*
D03*
D33*
X1001392Y506730D02*
D03*
X1017908D02*
D03*
D34*
X592470Y480640D02*
D03*
X567070D02*
D03*
X541670D02*
D03*
X516270D02*
D03*
X592470Y556840D02*
D03*
X567070D02*
D03*
X541670D02*
D03*
X516270D02*
D03*
D35*
X609870Y413640D02*
D03*
D36*
X631270Y427440D02*
D03*
Y490040D02*
D03*
X488970D02*
D03*
Y431440D02*
D03*
D37*
X490570Y553540D02*
D03*
X629570D02*
D03*
D38*
X625470Y528840D02*
D03*
D39*
X330470Y447200D02*
D03*
X318470D02*
D03*
Y416560D02*
D03*
X330470D02*
D03*
X318470Y480060D02*
D03*
X330470D02*
D03*
D40*
X365760Y513430D02*
D03*
Y525430D02*
D03*
D41*
X377508Y449580D02*
D03*
X404813Y459080D02*
D03*
Y449580D02*
D03*
Y440080D02*
D03*
X377508D02*
D03*
Y459080D02*
D03*
D42*
X851535Y515620D02*
D03*
D43*
X826770Y534670D02*
D03*
M02*
