G04*
G04 #@! TF.GenerationSoftware,Altium Limited,Altium Designer,24.8.2 (39)*
G04*
G04 Layer_Physical_Order=4*
G04 Layer_Color=16711680*
%FSLAX44Y44*%
%MOMM*%
G71*
G04*
G04 #@! TF.SameCoordinates,F9089647-E578-4EC2-B09E-D5C07AF86723*
G04*
G04*
G04 #@! TF.FilePolarity,Positive*
G04*
G01*
G75*
%ADD50R,1.4500X1.4500*%
%ADD51C,1.4500*%
%ADD52C,1.8034*%
%ADD53C,1.2700*%
%ADD54C,1.4986*%
%ADD57C,0.2032*%
%ADD58C,0.4060*%
%ADD59C,0.9000*%
%ADD60C,1.3000*%
%ADD61C,2.4000*%
D50*
X1004970Y96520D02*
D03*
D51*
X1054970D02*
D03*
D52*
X1083310Y534670D02*
D03*
X1133310D02*
D03*
D53*
X144780Y556260D02*
D03*
X170180D02*
D03*
X195580D02*
D03*
X220980D02*
D03*
X297180D02*
D03*
X322580D02*
D03*
X271780D02*
D03*
X246380D02*
D03*
X138430Y66040D02*
D03*
X213360Y44450D02*
D03*
X31750Y391160D02*
D03*
X19050Y39370D02*
D03*
X115570D02*
D03*
X95250Y123190D02*
D03*
X118110D02*
D03*
X44450Y373380D02*
D03*
X107950Y374650D02*
D03*
X146050Y392430D02*
D03*
X78740Y347980D02*
D03*
X133350Y365760D02*
D03*
X114300Y549910D02*
D03*
X194310Y521970D02*
D03*
X29210Y527050D02*
D03*
X64770Y119380D02*
D03*
X13970Y129540D02*
D03*
X36830Y120650D02*
D03*
X434340Y276860D02*
D03*
X444500Y449580D02*
D03*
X295910Y478790D02*
D03*
X297180Y417830D02*
D03*
X426720Y438150D02*
D03*
X298450Y453390D02*
D03*
X424180Y297180D02*
D03*
Y469900D02*
D03*
X689610Y532130D02*
D03*
X1021080Y458470D02*
D03*
X880110Y406400D02*
D03*
X795020Y443230D02*
D03*
X472440Y487680D02*
D03*
X468630Y547370D02*
D03*
X655320Y426720D02*
D03*
X358140Y487680D02*
D03*
X354330Y430530D02*
D03*
X824230Y490220D02*
D03*
X1060450Y455930D02*
D03*
X1040130Y383540D02*
D03*
X210820Y278130D02*
D03*
X99060Y251460D02*
D03*
X104140Y184150D02*
D03*
X76200Y182880D02*
D03*
X101600Y355600D02*
D03*
X153670Y344170D02*
D03*
X134620Y345440D02*
D03*
X966470Y398780D02*
D03*
Y431800D02*
D03*
X880110Y466330D02*
D03*
Y432040D02*
D03*
X210820Y259080D02*
D03*
X245110Y304800D02*
D03*
X254000Y255270D02*
D03*
X212090Y166370D02*
D03*
X293370Y209550D02*
D03*
X445770Y195580D02*
D03*
X469900Y187960D02*
D03*
X452120Y81280D02*
D03*
X419343Y200903D02*
D03*
X420370Y113030D02*
D03*
X419100Y58420D02*
D03*
X293370Y118110D02*
D03*
X288290Y140970D02*
D03*
Y173990D02*
D03*
X292100Y276860D02*
D03*
X293370Y322580D02*
D03*
X13970Y344170D02*
D03*
X881380Y373380D02*
D03*
X984250Y532130D02*
D03*
X773430Y553720D02*
D03*
X438792Y320943D02*
D03*
D54*
X55880Y554990D02*
D03*
X81280D02*
D03*
X30480D02*
D03*
D57*
X142988Y347575D02*
G03*
X132658Y355600I-10330J-2635D01*
G01*
X142988Y347575D02*
G03*
X132658Y355600I-10330J-2635D01*
G01*
X142988Y347575D02*
G03*
X132658Y355600I-10330J-2635D01*
G01*
X142988Y347575D02*
G03*
X132658Y355600I-10330J-2635D01*
G01*
X142988Y347575D02*
G03*
X132658Y355600I-10330J-2635D01*
G01*
X142988Y347575D02*
G03*
X132658Y355600I-10330J-2635D01*
G01*
X142988Y347575D02*
G03*
X132658Y355600I-10330J-2635D01*
G01*
X142988Y347575D02*
G03*
X132658Y355600I-10330J-2635D01*
G01*
X142988Y347575D02*
G03*
X132658Y355600I-10330J-2635D01*
G01*
X142988Y347575D02*
G03*
X132658Y355600I-10330J-2635D01*
G01*
X142988Y347575D02*
G03*
X132658Y355600I-10330J-2635D01*
G01*
X142988Y347575D02*
G03*
X132658Y355600I-10330J-2635D01*
G01*
X142988Y347575D02*
G03*
X132658Y355600I-10330J-2635D01*
G01*
X142988Y347575D02*
G03*
X132658Y355600I-10330J-2635D01*
G01*
X142988Y347575D02*
G03*
X132658Y355600I-10330J-2635D01*
G01*
X142988Y347575D02*
G03*
X132658Y355600I-10330J-2635D01*
G01*
X142988Y347575D02*
G03*
X132658Y355600I-10330J-2635D01*
G01*
X142988Y347575D02*
G03*
X132658Y355600I-10330J-2635D01*
G01*
X142988Y347575D02*
G03*
X132658Y355600I-10330J-2635D01*
G01*
X142988Y347575D02*
G03*
X132658Y355600I-10330J-2635D01*
G01*
X142988Y347575D02*
G03*
X132658Y355600I-10330J-2635D01*
G01*
X142988Y347575D02*
G03*
X132658Y355600I-10330J-2635D01*
G01*
X142988Y347575D02*
G03*
X132658Y355600I-10330J-2635D01*
G01*
X142988Y347575D02*
G03*
X132658Y355600I-10330J-2635D01*
G01*
X142988Y347575D02*
G03*
X132658Y355600I-10330J-2635D01*
G01*
X142988Y347575D02*
G03*
X132658Y355600I-10330J-2635D01*
G01*
X142988Y347575D02*
G03*
X132658Y355600I-10330J-2635D01*
G01*
X142988Y347575D02*
G03*
X132658Y355600I-10330J-2635D01*
G01*
X142988Y347575D02*
G03*
X132658Y355600I-10330J-2635D01*
G01*
X142988Y347575D02*
G03*
X132658Y355600I-10330J-2635D01*
G01*
X142988Y347575D02*
G03*
X132658Y355600I-10330J-2635D01*
G01*
X142988Y347575D02*
G03*
X132658Y355600I-10330J-2635D01*
G01*
X142988Y347575D02*
G03*
X132658Y355600I-10330J-2635D01*
G01*
X142988Y347575D02*
G03*
X132658Y355600I-10330J-2635D01*
G01*
X142988Y347575D02*
G03*
X132658Y355600I-10330J-2635D01*
G01*
X142988Y347575D02*
G03*
X132658Y355600I-10330J-2635D01*
G01*
X142988Y347575D02*
G03*
X132658Y355600I-10330J-2635D01*
G01*
X142988Y347575D02*
G03*
X132658Y355600I-10330J-2635D01*
G01*
X142988Y347575D02*
G03*
X132658Y355600I-10330J-2635D01*
G01*
X142988Y347575D02*
G03*
X132658Y355600I-10330J-2635D01*
G01*
X142988Y347575D02*
G03*
X132658Y355600I-10330J-2635D01*
G01*
X142988Y347575D02*
G03*
X132658Y355600I-10330J-2635D01*
G01*
X142988Y347575D02*
G03*
X132658Y355600I-10330J-2635D01*
G01*
X142988Y347575D02*
G03*
X132658Y355600I-10330J-2635D01*
G01*
X142988Y347575D02*
G03*
X132658Y355600I-10330J-2635D01*
G01*
X142988Y347575D02*
G03*
X132658Y355600I-10330J-2635D01*
G01*
X142988Y347575D02*
G03*
X132658Y355600I-10330J-2635D01*
G01*
X142988Y347575D02*
G03*
X132658Y355600I-10330J-2635D01*
G01*
X142988Y347575D02*
G03*
X132658Y355600I-10330J-2635D01*
G01*
X142988Y347575D02*
G03*
X132658Y355600I-10330J-2635D01*
G01*
X142988Y347575D02*
G03*
X132658Y355600I-10330J-2635D01*
G01*
X142988Y347575D02*
G03*
X132658Y355600I-10330J-2635D01*
G01*
X142988Y347575D02*
G03*
X132658Y355600I-10330J-2635D01*
G01*
X142988Y347575D02*
G03*
X132658Y355600I-10330J-2635D01*
G01*
X142988Y347575D02*
G03*
X132658Y355600I-10330J-2635D01*
G01*
X142988Y347575D02*
G03*
X132658Y355600I-10330J-2635D01*
G01*
X142988Y347575D02*
G03*
X132658Y355600I-10330J-2635D01*
G01*
X142988Y347575D02*
G03*
X132658Y355600I-10330J-2635D01*
G01*
X142988Y347575D02*
G03*
X132658Y355600I-10330J-2635D01*
G01*
X142988Y347575D02*
G03*
X132658Y355600I-10330J-2635D01*
G01*
X142988Y347575D02*
G03*
X132658Y355600I-10330J-2635D01*
G01*
X142988Y347575D02*
G03*
X132658Y355600I-10330J-2635D01*
G01*
X142988Y347575D02*
G03*
X132658Y355600I-10330J-2635D01*
G01*
X142988Y347575D02*
G03*
X132658Y355600I-10330J-2635D01*
G01*
X142988Y347575D02*
G03*
X132658Y355600I-10330J-2635D01*
G01*
X142988Y347575D02*
G03*
X132658Y355600I-10330J-2635D01*
G01*
X142988Y347575D02*
G03*
X132658Y355600I-10330J-2635D01*
G01*
X142988Y347575D02*
G03*
X132658Y355600I-10330J-2635D01*
G01*
X142988Y347575D02*
G03*
X132658Y355600I-10330J-2635D01*
G01*
X142988Y347575D02*
G03*
X132658Y355600I-10330J-2635D01*
G01*
X142988Y347575D02*
G03*
X132658Y355600I-10330J-2635D01*
G01*
X142988Y347575D02*
G03*
X132658Y355600I-10330J-2635D01*
G01*
X142988Y347575D02*
G03*
X132658Y355600I-10330J-2635D01*
G01*
X142988Y347575D02*
G03*
X132658Y355600I-10330J-2635D01*
G01*
X142988Y347575D02*
G03*
X132658Y355600I-10330J-2635D01*
G01*
X142988Y347575D02*
G03*
X132658Y355600I-10330J-2635D01*
G01*
X142988Y347575D02*
G03*
X132658Y355600I-10330J-2635D01*
G01*
X142988Y347575D02*
G03*
X132658Y355600I-10330J-2635D01*
G01*
X142988Y347575D02*
G03*
X132658Y355600I-10330J-2635D01*
G01*
X142988Y347575D02*
G03*
X132658Y355600I-10330J-2635D01*
G01*
X142988Y347575D02*
G03*
X132658Y355600I-10330J-2635D01*
G01*
X142988Y347575D02*
G03*
X132658Y355600I-10330J-2635D01*
G01*
X142988Y347575D02*
G03*
X132658Y355600I-10330J-2635D01*
G01*
X142988Y347575D02*
G03*
X132658Y355600I-10330J-2635D01*
G01*
X142988Y347575D02*
G03*
X132658Y355600I-10330J-2635D01*
G01*
X142988Y347575D02*
G03*
X132658Y355600I-10330J-2635D01*
G01*
X142988Y347575D02*
G03*
X132658Y355600I-10330J-2635D01*
G01*
X142988Y347575D02*
G03*
X132658Y355600I-10330J-2635D01*
G01*
X142988Y347575D02*
G03*
X132658Y355600I-10330J-2635D01*
G01*
X142988Y347575D02*
G03*
X132658Y355600I-10330J-2635D01*
G01*
X142988Y347575D02*
G03*
X132658Y355600I-10330J-2635D01*
G01*
X142988Y347575D02*
G03*
X132658Y355600I-10330J-2635D01*
G01*
X142988Y347575D02*
G03*
X132658Y355600I-10330J-2635D01*
G01*
X142988Y347575D02*
G03*
X132658Y355600I-10330J-2635D01*
G01*
X142988Y347575D02*
G03*
X132658Y355600I-10330J-2635D01*
G01*
X142988Y347575D02*
G03*
X132658Y355600I-10330J-2635D01*
G01*
X142988Y347575D02*
G03*
X132658Y355600I-10330J-2635D01*
G01*
X142988Y347575D02*
G03*
X132658Y355600I-10330J-2635D01*
G01*
X142988Y347575D02*
G03*
X132658Y355600I-10330J-2635D01*
G01*
X142988Y347575D02*
G03*
X132658Y355600I-10330J-2635D01*
G01*
X142988Y347575D02*
G03*
X132658Y355600I-10330J-2635D01*
G01*
X142988Y347575D02*
G03*
X132658Y355600I-10330J-2635D01*
G01*
X142988Y347575D02*
G03*
X132658Y355600I-10330J-2635D01*
G01*
X142988Y347575D02*
G03*
X132658Y355600I-10330J-2635D01*
G01*
X142988Y347575D02*
G03*
X132658Y355600I-10330J-2635D01*
G01*
X142988Y347575D02*
G03*
X132658Y355600I-10330J-2635D01*
G01*
X142988Y347575D02*
G03*
X132658Y355600I-10330J-2635D01*
G01*
X142988Y347575D02*
G03*
X132658Y355600I-10330J-2635D01*
G01*
X142988Y347575D02*
G03*
X132658Y355600I-10330J-2635D01*
G01*
X142988Y347575D02*
G03*
X132658Y355600I-10330J-2635D01*
G01*
X142988Y347575D02*
G03*
X132658Y355600I-10330J-2635D01*
G01*
X142988Y347575D02*
G03*
X132658Y355600I-10330J-2635D01*
G01*
X142988Y347575D02*
G03*
X132658Y355600I-10330J-2635D01*
G01*
X142988Y347575D02*
G03*
X132658Y355600I-10330J-2635D01*
G01*
X142988Y347575D02*
G03*
X132658Y355600I-10330J-2635D01*
G01*
X142988Y347575D02*
G03*
X132658Y355600I-10330J-2635D01*
G01*
X142988Y347575D02*
G03*
X132658Y355600I-10330J-2635D01*
G01*
X142988Y347575D02*
G03*
X132658Y355600I-10330J-2635D01*
G01*
X142988Y347575D02*
G03*
X132658Y355600I-10330J-2635D01*
G01*
X142988Y347575D02*
G03*
X132658Y355600I-10330J-2635D01*
G01*
X142988Y347575D02*
G03*
X132658Y355600I-10330J-2635D01*
G01*
X142988Y347575D02*
G03*
X132658Y355600I-10330J-2635D01*
G01*
X142988Y347575D02*
G03*
X132658Y355600I-10330J-2635D01*
G01*
X142988Y347575D02*
G03*
X132658Y355600I-10330J-2635D01*
G01*
X142988Y347575D02*
G03*
X132658Y355600I-10330J-2635D01*
G01*
X142988Y347575D02*
G03*
X132658Y355600I-10330J-2635D01*
G01*
X142988Y347575D02*
G03*
X132658Y355600I-10330J-2635D01*
G01*
X142988Y347575D02*
G03*
X132658Y355600I-10330J-2635D01*
G01*
X142988Y347575D02*
G03*
X132658Y355600I-10330J-2635D01*
G01*
X142988Y347575D02*
G03*
X132658Y355600I-10330J-2635D01*
G01*
X142988Y347575D02*
G03*
X132658Y355600I-10330J-2635D01*
G01*
X142988Y347575D02*
G03*
X132658Y355600I-10330J-2635D01*
G01*
X142988Y347575D02*
G03*
X132658Y355600I-10330J-2635D01*
G01*
X142988Y347575D02*
G03*
X132658Y355600I-10330J-2635D01*
G01*
X142988Y347575D02*
G03*
X132658Y355600I-10330J-2635D01*
G01*
X142988Y347575D02*
G03*
X132658Y355600I-10330J-2635D01*
G01*
X142988Y347575D02*
G03*
X132658Y355600I-10330J-2635D01*
G01*
X142988Y347575D02*
G03*
X132658Y355600I-10330J-2635D01*
G01*
X142988Y347575D02*
G03*
X132658Y355600I-10330J-2635D01*
G01*
X142988Y347575D02*
G03*
X132658Y355600I-10330J-2635D01*
G01*
X142988Y347575D02*
G03*
X132658Y355600I-10330J-2635D01*
G01*
X142988Y347575D02*
G03*
X132658Y355600I-10330J-2635D01*
G01*
X142988Y347575D02*
G03*
X132658Y355600I-10330J-2635D01*
G01*
X142988Y347575D02*
G03*
X132658Y355600I-10330J-2635D01*
G01*
X142988Y347575D02*
G03*
X132658Y355600I-10330J-2635D01*
G01*
X142988Y347575D02*
G03*
X132658Y355600I-10330J-2635D01*
G01*
X142988Y347575D02*
G03*
X132658Y355600I-10330J-2635D01*
G01*
X142988Y347575D02*
G03*
X132658Y355600I-10330J-2635D01*
G01*
X142988Y347575D02*
G03*
X132658Y355600I-10330J-2635D01*
G01*
X142988Y347575D02*
G03*
X132658Y355600I-10330J-2635D01*
G01*
X142988Y347575D02*
G03*
X132658Y355600I-10330J-2635D01*
G01*
X142988Y347575D02*
G03*
X132658Y355600I-10330J-2635D01*
G01*
X142988Y347575D02*
G03*
X132658Y355600I-10330J-2635D01*
G01*
X142988Y347575D02*
G03*
X132658Y355600I-10330J-2635D01*
G01*
X142988Y347575D02*
G03*
X132658Y355600I-10330J-2635D01*
G01*
X142988Y347575D02*
G03*
X132658Y355600I-10330J-2635D01*
G01*
X142988Y347575D02*
G03*
X132658Y355600I-10330J-2635D01*
G01*
X142988Y347575D02*
G03*
X132658Y355600I-10330J-2635D01*
G01*
X142988Y347575D02*
G03*
X132658Y355600I-10330J-2635D01*
G01*
X142988Y347575D02*
G03*
X132658Y355600I-10330J-2635D01*
G01*
X142988Y347575D02*
G03*
X132658Y355600I-10330J-2635D01*
G01*
X142988Y347575D02*
G03*
X132658Y355600I-10330J-2635D01*
G01*
X142988Y347575D02*
G03*
X132658Y355600I-10330J-2635D01*
G01*
X142988Y347575D02*
G03*
X132658Y355600I-10330J-2635D01*
G01*
X142988Y347575D02*
G03*
X132658Y355600I-10330J-2635D01*
G01*
X142988Y347575D02*
G03*
X132658Y355600I-10330J-2635D01*
G01*
X142988Y347575D02*
G03*
X132658Y355600I-10330J-2635D01*
G01*
X142988Y347575D02*
G03*
X132658Y355600I-10330J-2635D01*
G01*
X142988Y347575D02*
G03*
X132658Y355600I-10330J-2635D01*
G01*
X142988Y347575D02*
G03*
X132658Y355600I-10330J-2635D01*
G01*
X142988Y347575D02*
G03*
X132658Y355600I-10330J-2635D01*
G01*
X142988Y347575D02*
G03*
X132658Y355600I-10330J-2635D01*
G01*
X142988Y347575D02*
G03*
X132658Y355600I-10330J-2635D01*
G01*
X142988Y347575D02*
G03*
X132658Y355600I-10330J-2635D01*
G01*
X142988Y347575D02*
G03*
X132658Y355600I-10330J-2635D01*
G01*
X142988Y347575D02*
G03*
X132658Y355600I-10330J-2635D01*
G01*
X142988Y347575D02*
G03*
X132658Y355600I-10330J-2635D01*
G01*
X142988Y347575D02*
G03*
X132658Y355600I-10330J-2635D01*
G01*
X142988Y347575D02*
G03*
X132658Y355600I-10330J-2635D01*
G01*
X142988Y347575D02*
G03*
X132658Y355600I-10330J-2635D01*
G01*
X142988Y347575D02*
G03*
X132658Y355600I-10330J-2635D01*
G01*
X142988Y347575D02*
G03*
X132658Y355600I-10330J-2635D01*
G01*
X142988Y347575D02*
G03*
X132658Y355600I-10330J-2635D01*
G01*
X142988Y347575D02*
G03*
X132658Y355600I-10330J-2635D01*
G01*
X142988Y347575D02*
G03*
X132658Y355600I-10330J-2635D01*
G01*
X142988Y347575D02*
G03*
X132658Y355600I-10330J-2635D01*
G01*
X142988Y347575D02*
G03*
X132658Y355600I-10330J-2635D01*
G01*
X142988Y347575D02*
G03*
X132658Y355600I-10330J-2635D01*
G01*
X142988Y347575D02*
G03*
X132658Y355600I-10330J-2635D01*
G01*
X142988Y347575D02*
G03*
X132658Y355600I-10330J-2635D01*
G01*
X142988Y347575D02*
G03*
X132658Y355600I-10330J-2635D01*
G01*
X142988Y347575D02*
G03*
X132658Y355600I-10330J-2635D01*
G01*
X142988Y347575D02*
G03*
X132658Y355600I-10330J-2635D01*
G01*
X142988Y347575D02*
G03*
X132658Y355600I-10330J-2635D01*
G01*
X142988Y347575D02*
G03*
X132658Y355600I-10330J-2635D01*
G01*
X142988Y347575D02*
G03*
X132658Y355600I-10330J-2635D01*
G01*
X142988Y347575D02*
G03*
X132658Y355600I-10330J-2635D01*
G01*
X142988Y347575D02*
G03*
X132658Y355600I-10330J-2635D01*
G01*
X142988Y347575D02*
G03*
X132658Y355600I-10330J-2635D01*
G01*
X142988Y347575D02*
G03*
X132658Y355600I-10330J-2635D01*
G01*
X142988Y347575D02*
G03*
X132658Y355600I-10330J-2635D01*
G01*
X142988Y347575D02*
G03*
X132658Y355600I-10330J-2635D01*
G01*
X142988Y347575D02*
G03*
X132658Y355600I-10330J-2635D01*
G01*
X142988Y347575D02*
G03*
X132658Y355600I-10330J-2635D01*
G01*
X142988Y347575D02*
G03*
X132658Y355600I-10330J-2635D01*
G01*
X142988Y347575D02*
G03*
X132658Y355600I-10330J-2635D01*
G01*
X142988Y347575D02*
G03*
X132658Y355600I-10330J-2635D01*
G01*
X142988Y347575D02*
G03*
X132658Y355600I-10330J-2635D01*
G01*
X142988Y347575D02*
G03*
X132658Y355600I-10330J-2635D01*
G01*
X142988Y347575D02*
G03*
X132658Y355600I-10330J-2635D01*
G01*
X142988Y347575D02*
G03*
X132658Y355600I-10330J-2635D01*
G01*
X142988Y347575D02*
G03*
X132658Y355600I-10330J-2635D01*
G01*
X142988Y347575D02*
G03*
X132658Y355600I-10330J-2635D01*
G01*
X142988Y347575D02*
G03*
X132658Y355600I-10330J-2635D01*
G01*
X142988Y347575D02*
G03*
X132658Y355600I-10330J-2635D01*
G01*
X142988Y347575D02*
G03*
X132658Y355600I-10330J-2635D01*
G01*
X142988Y347575D02*
G03*
X132658Y355600I-10330J-2635D01*
G01*
X142988Y347575D02*
G03*
X132658Y355600I-10330J-2635D01*
G01*
X142988Y347575D02*
G03*
X132658Y355600I-10330J-2635D01*
G01*
X142988Y347575D02*
G03*
X132658Y355600I-10330J-2635D01*
G01*
X142988Y347575D02*
G03*
X132658Y355600I-10330J-2635D01*
G01*
X142988Y347575D02*
G03*
X132658Y355600I-10330J-2635D01*
G01*
X142988Y347575D02*
G03*
X132658Y355600I-10330J-2635D01*
G01*
X142988Y347575D02*
G03*
X132658Y355600I-10330J-2635D01*
G01*
X142988Y347575D02*
G03*
X132658Y355600I-10330J-2635D01*
G01*
X142988Y347575D02*
G03*
X132658Y355600I-10330J-2635D01*
G01*
X142988Y347575D02*
G03*
X132658Y355600I-10330J-2635D01*
G01*
X142988Y347575D02*
G03*
X132658Y355600I-10330J-2635D01*
G01*
X142988Y347575D02*
G03*
X132658Y355600I-10330J-2635D01*
G01*
X142988Y347575D02*
G03*
X132658Y355600I-10330J-2635D01*
G01*
X142988Y347575D02*
G03*
X132658Y355600I-10330J-2635D01*
G01*
X142988Y347575D02*
G03*
X132658Y355600I-10330J-2635D01*
G01*
X142988Y347575D02*
G03*
X132658Y355600I-10330J-2635D01*
G01*
X142988Y347575D02*
G03*
X132658Y355600I-10330J-2635D01*
G01*
X142988Y347575D02*
G03*
X132658Y355600I-10330J-2635D01*
G01*
X142988Y347575D02*
G03*
X132658Y355600I-10330J-2635D01*
G01*
X142988Y347575D02*
G03*
X132658Y355600I-10330J-2635D01*
G01*
X142988Y347575D02*
G03*
X132658Y355600I-10330J-2635D01*
G01*
X142988Y347575D02*
G03*
X132658Y355600I-10330J-2635D01*
G01*
X142988Y347575D02*
G03*
X132658Y355600I-10330J-2635D01*
G01*
X142988Y347575D02*
G03*
X132658Y355600I-10330J-2635D01*
G01*
X142988Y347575D02*
G03*
X132658Y355600I-10330J-2635D01*
G01*
X142988Y347575D02*
G03*
X132658Y355600I-10330J-2635D01*
G01*
X142988Y347575D02*
G03*
X132658Y355600I-10330J-2635D01*
G01*
X142988Y347575D02*
G03*
X132658Y355600I-10330J-2635D01*
G01*
X142988Y347575D02*
G03*
X132658Y355600I-10330J-2635D01*
G01*
X142988Y347575D02*
G03*
X132658Y355600I-10330J-2635D01*
G01*
X142988Y347575D02*
G03*
X132658Y355600I-10330J-2635D01*
G01*
X142988Y347575D02*
G03*
X132658Y355600I-10330J-2635D01*
G01*
X142988Y347575D02*
G03*
X132658Y355600I-10330J-2635D01*
G01*
X142988Y347575D02*
G03*
X132658Y355600I-10330J-2635D01*
G01*
X142988Y347575D02*
G03*
X132658Y355600I-10330J-2635D01*
G01*
X142988Y347575D02*
G03*
X132658Y355600I-10330J-2635D01*
G01*
X142988Y347575D02*
G03*
X132658Y355600I-10330J-2635D01*
G01*
X142988Y347575D02*
G03*
X132658Y355600I-10330J-2635D01*
G01*
X142988Y347575D02*
G03*
X132658Y355600I-10330J-2635D01*
G01*
X142988Y347575D02*
G03*
X132658Y355600I-10330J-2635D01*
G01*
X142988Y347575D02*
G03*
X132658Y355600I-10330J-2635D01*
G01*
X142988Y347575D02*
G03*
X132658Y355600I-10330J-2635D01*
G01*
X142988Y347575D02*
G03*
X132658Y355600I-10330J-2635D01*
G01*
X142988Y347575D02*
G03*
X132658Y355600I-10330J-2635D01*
G01*
X142988Y347575D02*
G03*
X132658Y355600I-10330J-2635D01*
G01*
X142988Y347575D02*
G03*
X132658Y355600I-10330J-2635D01*
G01*
X142988Y347575D02*
G03*
X132658Y355600I-10330J-2635D01*
G01*
X142988Y347575D02*
G03*
X132658Y355600I-10330J-2635D01*
G01*
X142988Y347575D02*
G03*
X132658Y355600I-10330J-2635D01*
G01*
X142988Y347575D02*
G03*
X132658Y355600I-10330J-2635D01*
G01*
X142988Y347575D02*
G03*
X132658Y355600I-10330J-2635D01*
G01*
X142988Y347575D02*
G03*
X132658Y355600I-10330J-2635D01*
G01*
X142988Y347575D02*
G03*
X132658Y355600I-10330J-2635D01*
G01*
X142988Y347575D02*
G03*
X132658Y355600I-10330J-2635D01*
G01*
X142988Y347575D02*
G03*
X132658Y355600I-10330J-2635D01*
G01*
X142988Y347575D02*
G03*
X132658Y355600I-10330J-2635D01*
G01*
X142988Y347575D02*
G03*
X132658Y355600I-10330J-2635D01*
G01*
X142988Y347575D02*
G03*
X132658Y355600I-10330J-2635D01*
G01*
X142988Y347575D02*
G03*
X132658Y355600I-10330J-2635D01*
G01*
X142988Y347575D02*
G03*
X132658Y355600I-10330J-2635D01*
G01*
X142988Y347575D02*
G03*
X132658Y355600I-10330J-2635D01*
G01*
X142988Y347575D02*
G03*
X132658Y355600I-10330J-2635D01*
G01*
X142988Y347575D02*
G03*
X132658Y355600I-10330J-2635D01*
G01*
X142988Y347575D02*
G03*
X132658Y355600I-10330J-2635D01*
G01*
X142988Y347575D02*
G03*
X132658Y355600I-10330J-2635D01*
G01*
X142988Y347575D02*
G03*
X132658Y355600I-10330J-2635D01*
G01*
X142988Y347575D02*
G03*
X132658Y355600I-10330J-2635D01*
G01*
X142988Y347575D02*
G03*
X132658Y355600I-10330J-2635D01*
G01*
X142988Y347575D02*
G03*
X132658Y355600I-10330J-2635D01*
G01*
X142988Y347575D02*
G03*
X132658Y355600I-10330J-2635D01*
G01*
X142988Y347575D02*
G03*
X132658Y355600I-10330J-2635D01*
G01*
X12700Y100410D02*
X16430Y104140D01*
X12700Y46311D02*
Y100410D01*
X16430Y104140D02*
X76200D01*
X95250Y123190D01*
X212725Y45085D02*
Y163687D01*
Y45085D02*
X213360Y44450D01*
X212090Y164322D02*
X212725Y163687D01*
X31750Y152747D02*
Y391160D01*
X19050Y39370D02*
Y39961D01*
X12700Y46311D02*
X19050Y39961D01*
X44450Y373380D02*
X45085Y374015D01*
X107315D01*
X107950Y374650D01*
X31750Y152747D02*
X64770Y119727D01*
X67310Y336550D02*
X78740Y347980D01*
X133350Y365760D02*
X306832D01*
X319532Y353060D01*
X64770Y119380D02*
Y119727D01*
X434340Y276860D02*
X458470Y300990D01*
X447040Y463550D02*
X458470Y452120D01*
Y300990D02*
Y452120D01*
X430530Y463550D02*
X447040D01*
X424180Y469900D02*
X430530Y463550D01*
X441786Y449580D02*
X444500D01*
X437976Y453390D02*
X441786Y449580D01*
X298450Y453390D02*
X437976D01*
X295910Y478790D02*
X304800Y469900D01*
X424180D01*
X297100Y417750D02*
X297180Y417830D01*
X297100Y410210D02*
X398780D01*
X297100D02*
Y417750D01*
X398780Y410210D02*
X426720Y438150D01*
X101600Y355600D02*
X132659D01*
X101600D02*
X132659D01*
X132658D02*
X132659D01*
X101600D02*
X132658D01*
X101600D02*
X132659D01*
X346202Y262716D02*
X347392Y261525D01*
X319532Y353060D02*
X346202Y326390D01*
X142240Y209550D02*
X293370D01*
X220724Y282954D02*
X242570Y304800D01*
X210820Y278130D02*
X213707D01*
X218530Y282954D01*
X220724D01*
X134620Y257810D02*
Y345440D01*
X134501Y257691D02*
X134620Y257810D01*
X134501Y257691D02*
X154148Y238044D01*
X118110Y264160D02*
X134620Y247650D01*
Y217170D02*
Y247650D01*
Y217170D02*
X142240Y209550D01*
X71120Y264160D02*
X118110D01*
X67310Y267970D02*
X71120Y264160D01*
X67310Y267970D02*
Y336550D01*
X170975Y241346D02*
X278166D01*
X153670Y330200D02*
X161290Y322580D01*
X293370D01*
X153670Y330200D02*
Y344170D01*
X142988Y347575D02*
X169785Y242537D01*
X170975Y241346D01*
X154148Y238044D02*
X295356D01*
X212725Y257175D02*
X252095D01*
X210820Y259080D02*
X212725Y257175D01*
X252095D02*
X254000Y255270D01*
X242570Y304800D02*
X245110D01*
X278166Y241346D02*
X278189Y241370D01*
X296553D01*
X296863Y241268D01*
X419343Y200903D01*
X212090Y164322D02*
X285480Y90932D01*
X212090Y164322D02*
Y166370D01*
X445245Y195580D02*
X445770D01*
X347392Y261525D02*
X445245Y195580D01*
X346202Y262716D02*
Y326390D01*
X295356Y238044D02*
X420370Y113030D01*
X285480Y90932D02*
X612394D01*
X617982Y96520D01*
X1004970D01*
D58*
X773430Y553720D02*
X925830D01*
X1021080Y458470D01*
D59*
X356510Y65920D02*
D03*
D60*
Y315920D02*
D03*
D61*
X837370Y311360D02*
D03*
Y70910D02*
D03*
M02*
