G04*
G04 #@! TF.GenerationSoftware,Altium Limited,Altium Designer,24.8.2 (39)*
G04*
G04 Layer_Color=128*
%FSLAX44Y44*%
%MOMM*%
G71*
G04*
G04 #@! TF.SameCoordinates,F9089647-E578-4EC2-B09E-D5C07AF86723*
G04*
G04*
G04 #@! TF.FilePolarity,Positive*
G04*
G01*
G75*
%ADD15C,0.1270*%
D15*
X351010Y65920D02*
X362010D01*
X356510Y60420D02*
Y71420D01*
X348510Y315920D02*
X364510D01*
X356510Y307920D02*
Y323920D01*
X825370Y311360D02*
X849370D01*
X837370Y299360D02*
Y323360D01*
X825370Y70910D02*
X849370D01*
X837370Y58910D02*
Y82910D01*
X1000220Y96520D02*
X1009720D01*
X1004970Y91770D02*
Y101270D01*
X1050220Y96520D02*
X1059720D01*
X1054970Y91770D02*
Y101270D01*
X1076833Y534670D02*
X1089787D01*
X1083310Y528193D02*
Y541147D01*
X1126833Y534670D02*
X1139787D01*
X1133310Y528193D02*
Y541147D01*
X141224Y556260D02*
X148336D01*
X144780Y552704D02*
Y559816D01*
X166624Y556260D02*
X173736D01*
X170180Y552704D02*
Y559816D01*
X192024Y556260D02*
X199136D01*
X195580Y552704D02*
Y559816D01*
X217424Y556260D02*
X224536D01*
X220980Y552704D02*
Y559816D01*
X293624Y556260D02*
X300736D01*
X297180Y552704D02*
Y559816D01*
X319024Y556260D02*
X326136D01*
X322580Y552704D02*
Y559816D01*
X268224Y556260D02*
X275336D01*
X271780Y552704D02*
Y559816D01*
X242824Y556260D02*
X249936D01*
X246380Y552704D02*
Y559816D01*
X50927Y554990D02*
X60833D01*
X55880Y550037D02*
Y559943D01*
X76327Y554990D02*
X86233D01*
X81280Y550037D02*
Y559943D01*
X25527Y554990D02*
X35433D01*
X30480Y550037D02*
Y559943D01*
X134874Y66040D02*
X141986D01*
X138430Y62484D02*
Y69596D01*
X209804Y44450D02*
X216916D01*
X213360Y40894D02*
Y48006D01*
X28194Y391160D02*
X35306D01*
X31750Y387604D02*
Y394716D01*
X15494Y39370D02*
X22606D01*
X19050Y35814D02*
Y42926D01*
X112014Y39370D02*
X119126D01*
X115570Y35814D02*
Y42926D01*
X91694Y123190D02*
X98806D01*
X95250Y119634D02*
Y126746D01*
X114554Y123190D02*
X121666D01*
X118110Y119634D02*
Y126746D01*
X40894Y373380D02*
X48006D01*
X44450Y369824D02*
Y376936D01*
X104394Y374650D02*
X111506D01*
X107950Y371094D02*
Y378206D01*
X142494Y392430D02*
X149606D01*
X146050Y388874D02*
Y395986D01*
X75184Y347980D02*
X82296D01*
X78740Y344424D02*
Y351536D01*
X129794Y365760D02*
X136906D01*
X133350Y362204D02*
Y369316D01*
X110744Y549910D02*
X117856D01*
X114300Y546354D02*
Y553466D01*
X190754Y521970D02*
X197866D01*
X194310Y518414D02*
Y525526D01*
X25654Y527050D02*
X32766D01*
X29210Y523494D02*
Y530606D01*
X61214Y119380D02*
X68326D01*
X64770Y115824D02*
Y122936D01*
X10414Y129540D02*
X17526D01*
X13970Y125984D02*
Y133096D01*
X33274Y120650D02*
X40386D01*
X36830Y117094D02*
Y124206D01*
X430784Y276860D02*
X437896D01*
X434340Y273304D02*
Y280416D01*
X440944Y449580D02*
X448056D01*
X444500Y446024D02*
Y453136D01*
X292354Y478790D02*
X299466D01*
X295910Y475234D02*
Y482346D01*
X293624Y417830D02*
X300736D01*
X297180Y414274D02*
Y421386D01*
X423164Y438150D02*
X430276D01*
X426720Y434594D02*
Y441706D01*
X294894Y453390D02*
X302006D01*
X298450Y449834D02*
Y456946D01*
X420624Y297180D02*
X427736D01*
X424180Y293624D02*
Y300736D01*
X420624Y469900D02*
X427736D01*
X424180Y466344D02*
Y473456D01*
X686054Y532130D02*
X693166D01*
X689610Y528574D02*
Y535686D01*
X1017524Y458470D02*
X1024636D01*
X1021080Y454914D02*
Y462026D01*
X876554Y406400D02*
X883666D01*
X880110Y402844D02*
Y409956D01*
X791464Y443230D02*
X798576D01*
X795020Y439674D02*
Y446786D01*
X468884Y487680D02*
X475996D01*
X472440Y484124D02*
Y491236D01*
X465074Y547370D02*
X472186D01*
X468630Y543814D02*
Y550926D01*
X651764Y426720D02*
X658876D01*
X655320Y423164D02*
Y430276D01*
X354584Y487680D02*
X361696D01*
X358140Y484124D02*
Y491236D01*
X350774Y430530D02*
X357886D01*
X354330Y426974D02*
Y434086D01*
X820674Y490220D02*
X827786D01*
X824230Y486664D02*
Y493776D01*
X1056894Y455930D02*
X1064006D01*
X1060450Y452374D02*
Y459486D01*
X1036574Y383540D02*
X1043686D01*
X1040130Y379984D02*
Y387096D01*
X207264Y278130D02*
X214376D01*
X210820Y274574D02*
Y281686D01*
X95504Y251460D02*
X102616D01*
X99060Y247904D02*
Y255016D01*
X100584Y184150D02*
X107696D01*
X104140Y180594D02*
Y187706D01*
X72644Y182880D02*
X79756D01*
X76200Y179324D02*
Y186436D01*
X98044Y355600D02*
X105156D01*
X101600Y352044D02*
Y359156D01*
X150114Y344170D02*
X157226D01*
X153670Y340614D02*
Y347726D01*
X131064Y345440D02*
X138176D01*
X134620Y341884D02*
Y348996D01*
X962914Y398780D02*
X970026D01*
X966470Y395224D02*
Y402336D01*
X962914Y431800D02*
X970026D01*
X966470Y428244D02*
Y435356D01*
X876554Y466330D02*
X883666D01*
X880110Y462774D02*
Y469886D01*
X876554Y432040D02*
X883666D01*
X880110Y428484D02*
Y435596D01*
X207264Y259080D02*
X214376D01*
X210820Y255524D02*
Y262636D01*
X241554Y304800D02*
X248666D01*
X245110Y301244D02*
Y308356D01*
X250444Y255270D02*
X257556D01*
X254000Y251714D02*
Y258826D01*
X208534Y166370D02*
X215646D01*
X212090Y162814D02*
Y169926D01*
X289814Y209550D02*
X296926D01*
X293370Y205994D02*
Y213106D01*
X442214Y195580D02*
X449326D01*
X445770Y192024D02*
Y199136D01*
X466344Y187960D02*
X473456D01*
X469900Y184404D02*
Y191516D01*
X448564Y81280D02*
X455676D01*
X452120Y77724D02*
Y84836D01*
X415787Y200903D02*
X422899D01*
X419343Y197347D02*
Y204459D01*
X416814Y113030D02*
X423926D01*
X420370Y109474D02*
Y116586D01*
X415544Y58420D02*
X422656D01*
X419100Y54864D02*
Y61976D01*
X289814Y118110D02*
X296926D01*
X293370Y114554D02*
Y121666D01*
X284734Y140970D02*
X291846D01*
X288290Y137414D02*
Y144526D01*
X284734Y173990D02*
X291846D01*
X288290Y170434D02*
Y177546D01*
X288544Y276860D02*
X295656D01*
X292100Y273304D02*
Y280416D01*
X289814Y322580D02*
X296926D01*
X293370Y319024D02*
Y326136D01*
X10414Y344170D02*
X17526D01*
X13970Y340614D02*
Y347726D01*
X877824Y373380D02*
X884936D01*
X881380Y369824D02*
Y376936D01*
X980694Y532130D02*
X987806D01*
X984250Y528574D02*
Y535686D01*
X769874Y553720D02*
X776986D01*
X773430Y550164D02*
Y557276D01*
X435236Y320943D02*
X442348D01*
X438792Y317387D02*
Y324499D01*
M02*
