G04*
G04 #@! TF.GenerationSoftware,Altium Limited,Altium Designer,24.8.2 (39)*
G04*
G04 Layer_Color=65535*
%FSLAX44Y44*%
%MOMM*%
G71*
G04*
G04 #@! TF.SameCoordinates,F9089647-E578-4EC2-B09E-D5C07AF86723*
G04*
G04*
G04 #@! TF.FilePolarity,Positive*
G04*
G01*
G75*
%ADD10C,0.1524*%
%ADD11C,0.2500*%
%ADD12C,0.1500*%
%ADD13C,0.5080*%
%ADD14C,0.2000*%
%ADD15C,0.1270*%
%ADD16C,0.0762*%
%ADD17C,0.1778*%
D10*
X188976Y457200D02*
G03*
X188976Y457200I-17526J0D01*
G01*
X60706D02*
G03*
X60706Y457200I-17526J0D01*
G01*
X763Y145907D02*
X5197D01*
X-63208Y328533D02*
X-763D01*
X156596Y488442D02*
X186304D01*
X194348Y314843D02*
Y328533D01*
X140208Y425958D02*
Y488442D01*
X-63208Y145907D02*
X-763D01*
X185842Y328533D02*
X194348D01*
Y145907D02*
Y159598D01*
X763Y328533D02*
X5197D01*
X-63208Y145907D02*
Y328533D01*
X156596Y425958D02*
X186304D01*
X202692D02*
Y488442D01*
X185842Y145907D02*
X194348D01*
X381127Y466090D02*
X401193D01*
X381127Y433070D02*
X401193D01*
X130810Y570230D02*
X336550D01*
X96774Y541020D02*
Y568960D01*
X28326Y425958D02*
X58034D01*
X11938D02*
Y488442D01*
X14986Y568960D02*
X96774D01*
X14986Y541020D02*
Y568960D01*
X1159580Y483400D02*
Y575940D01*
X1057040Y483400D02*
X1159580D01*
X74422Y425958D02*
Y488442D01*
X130810Y542290D02*
X336550D01*
X28326Y488442D02*
X58034D01*
X130810Y542290D02*
Y570230D01*
X14986Y541020D02*
X96774D01*
X336550Y542290D02*
Y570230D01*
X1057040Y483400D02*
Y575940D01*
X1159580D01*
D11*
X301260Y308920D02*
G03*
X301260Y308920I-1250J0D01*
G01*
X516970Y569290D02*
G03*
X516970Y569290I-1250J0D01*
G01*
X870520Y515620D02*
G03*
X870520Y515620I-1250J0D01*
G01*
D12*
X1102470Y96520D02*
G03*
X1102470Y96520I-72500J0D01*
G01*
D13*
X1043070Y534670D02*
G03*
X1043070Y534670I-3810J0D01*
G01*
X148590Y537210D02*
G03*
X148590Y537210I-3810J0D01*
G01*
X-2540Y558792D02*
G03*
X-2540Y551189I-254J-3801D01*
G01*
D14*
X42811Y47480D02*
X84189D01*
X90950Y400951D02*
Y442329D01*
X1022840Y392061D02*
Y433439D01*
X914031Y532910D02*
X955409D01*
X708760Y562220D02*
X728880D01*
X988840Y392061D02*
Y433439D01*
X42811Y13480D02*
X84189D01*
X145681Y47480D02*
X187059D01*
X90950Y479691D02*
Y521069D01*
X124950Y400951D02*
Y442329D01*
Y479691D02*
Y521069D01*
X145681Y13480D02*
X187059D01*
X341510Y41420D02*
X397510D01*
X94149Y66220D02*
X119211D01*
X94149Y88720D02*
X119211D01*
X379361Y577070D02*
X420739D01*
X397510Y41420D02*
Y65920D01*
X341510Y340420D02*
X397510D01*
X147140Y89069D02*
Y114131D01*
X31381Y60470D02*
X72759D01*
X31381Y94470D02*
X72759D01*
X177620Y63669D02*
Y88731D01*
X155120Y63669D02*
Y88731D01*
X124640Y89069D02*
Y114131D01*
X379361Y543070D02*
X420739D01*
X862150Y436019D02*
Y461081D01*
X839650Y378629D02*
Y403691D01*
X914031Y566910D02*
X955409D01*
X1089291Y410990D02*
X1130669D01*
X1089291Y444990D02*
X1130669D01*
X839650Y436019D02*
Y461081D01*
X731340Y508169D02*
Y533231D01*
X708840Y508169D02*
Y533231D01*
X397510Y311920D02*
Y340420D01*
X926010Y402759D02*
Y427821D01*
X948510Y402759D02*
Y427821D01*
X708760Y545220D02*
X728880D01*
X862150Y378629D02*
Y403691D01*
X991849Y545749D02*
X1024911D01*
X991849Y569311D02*
X1024911D01*
X995119Y495449D02*
X1024181D01*
X995119Y518011D02*
X1024181D01*
X498670Y555990D02*
X509520D01*
X633720Y403290D02*
Y416690D01*
Y438190D02*
Y479290D01*
X573820Y555990D02*
X585720D01*
X548420D02*
X560320D01*
X523020D02*
X534920D01*
X633720Y500790D02*
Y542790D01*
X486420Y403290D02*
X633720D01*
X315720Y455700D02*
X333220D01*
X315773Y438670D02*
X333273D01*
X486420Y442190D02*
Y479290D01*
Y500790D02*
Y542790D01*
X599220Y555990D02*
X621470D01*
X486420Y403290D02*
Y420690D01*
X315720Y488560D02*
X333220D01*
X357230Y510627D02*
Y528126D01*
X374260Y510680D02*
Y528180D01*
X819270Y559170D02*
X834270D01*
X819270Y510170D02*
X834270D01*
X315720Y425060D02*
X333220D01*
X315773Y408030D02*
X333273D01*
X315773Y471530D02*
X333273D01*
D15*
X696600Y405770D02*
Y409595D01*
Y405770D02*
X776600D01*
Y409595D01*
X696600Y485770D02*
X776600D01*
Y481945D02*
Y485770D01*
X696600Y481945D02*
Y485770D01*
D16*
X131004Y413004D02*
X139468Y421468D01*
Y413004D02*
X131004Y421468D01*
X135236Y413004D02*
Y421468D01*
X139468Y417236D02*
X131004D01*
X8740Y130844D02*
X17204Y139308D01*
Y130844D02*
X8740Y139308D01*
X12972Y130844D02*
Y139308D01*
X17204Y135076D02*
X8740D01*
X368980Y474486D02*
X377444Y466022D01*
X368980D02*
X377444Y474486D01*
X368980Y470254D02*
X377444D01*
X373212Y466022D02*
Y474486D01*
X83626Y501396D02*
X75162Y492932D01*
Y501396D02*
X83626Y492932D01*
X79394Y501396D02*
Y492932D01*
X75162Y497164D02*
X83626D01*
D17*
X310948Y12743D02*
Y19091D01*
X309678Y20360D01*
X307139D01*
X305870Y19091D01*
Y12743D01*
X298252Y20360D02*
X303330D01*
X298252Y15282D01*
Y14012D01*
X299522Y12743D01*
X302061D01*
X303330Y14012D01*
X478309Y578637D02*
Y572289D01*
X479579Y571019D01*
X482118D01*
X483387Y572289D01*
Y578637D01*
X491005Y577367D02*
X489735Y578637D01*
X487196D01*
X485927Y577367D01*
Y576097D01*
X487196Y574828D01*
X489735D01*
X491005Y573558D01*
Y572289D01*
X489735Y571019D01*
X487196D01*
X485927Y572289D01*
X493544Y578637D02*
X496083D01*
X494814D01*
Y571019D01*
X493544D01*
X496083D01*
X499892D02*
Y578637D01*
X502431Y576097D01*
X504970Y578637D01*
Y571019D01*
X507509D02*
X510049D01*
X508779D01*
Y578637D01*
X507509Y577367D01*
X987425Y449987D02*
Y457605D01*
X991234D01*
X992503Y456335D01*
Y453796D01*
X991234Y452526D01*
X987425D01*
X989964D02*
X992503Y449987D01*
X995042D02*
X997582D01*
X996312D01*
Y457605D01*
X995042Y456335D01*
X1001391Y449987D02*
X1003930D01*
X1002660D01*
Y457605D01*
X1001391Y456335D01*
X205741Y27302D02*
X213359D01*
Y23493D01*
X212089Y22224D01*
X209550D01*
X208280Y23493D01*
Y27302D01*
Y24763D02*
X205741Y22224D01*
Y19684D02*
Y17145D01*
Y18415D01*
X213359D01*
X212089Y19684D01*
Y13336D02*
X213359Y12067D01*
Y9528D01*
X212089Y8258D01*
X210820D01*
X209550Y9528D01*
Y10797D01*
Y9528D01*
X208280Y8258D01*
X207011D01*
X205741Y9528D01*
Y12067D01*
X207011Y13336D01*
X957199Y185544D02*
Y177927D01*
X962277D01*
X969895Y184275D02*
X968625Y185544D01*
X966086D01*
X964817Y184275D01*
Y183005D01*
X966086Y181736D01*
X968625D01*
X969895Y180466D01*
Y179197D01*
X968625Y177927D01*
X966086D01*
X964817Y179197D01*
X972434Y177927D02*
X974973D01*
X973704D01*
Y185544D01*
X972434Y184275D01*
X137031Y521079D02*
X135762Y522349D01*
X133223D01*
X131953Y521079D01*
Y519809D01*
X133223Y518540D01*
X135762D01*
X137031Y517270D01*
Y516001D01*
X135762Y514731D01*
X133223D01*
X131953Y516001D01*
X139571Y522349D02*
Y514731D01*
X142110Y517270D01*
X144649Y514731D01*
Y522349D01*
X152266Y514731D02*
X147188D01*
X152266Y519809D01*
Y521079D01*
X150997Y522349D01*
X148458D01*
X147188Y521079D01*
X77097Y392819D02*
X78366Y391549D01*
X80906D01*
X82175Y392819D01*
Y394089D01*
X80906Y395358D01*
X78366D01*
X77097Y396628D01*
Y397897D01*
X78366Y399167D01*
X80906D01*
X82175Y397897D01*
X74557Y391549D02*
Y399167D01*
X72018Y396628D01*
X69479Y399167D01*
Y391549D01*
X66940Y399167D02*
X64401D01*
X65670D01*
Y391549D01*
X66940Y392819D01*
X1072743Y409575D02*
X1065125D01*
Y413384D01*
X1066395Y414653D01*
X1068934D01*
X1070204Y413384D01*
Y409575D01*
Y412114D02*
X1072743Y414653D01*
Y417192D02*
Y419732D01*
Y418462D01*
X1065125D01*
X1066395Y417192D01*
X1072743Y428619D02*
Y423540D01*
X1067664Y428619D01*
X1066395D01*
X1065125Y427349D01*
Y424810D01*
X1066395Y423540D01*
X909958Y519431D02*
Y527049D01*
X913767D01*
X915036Y525779D01*
Y523240D01*
X913767Y521970D01*
X909958D01*
X912497D02*
X915036Y519431D01*
X917576D02*
X920115D01*
X918845D01*
Y527049D01*
X917576Y525779D01*
X923924D02*
X925193Y527049D01*
X927732D01*
X929002Y525779D01*
Y520701D01*
X927732Y519431D01*
X925193D01*
X923924Y520701D01*
Y525779D01*
X362813Y546481D02*
X355195D01*
Y550290D01*
X356465Y551559D01*
X359004D01*
X360274Y550290D01*
Y546481D01*
Y549020D02*
X362813Y551559D01*
X361543Y554099D02*
X362813Y555368D01*
Y557907D01*
X361543Y559177D01*
X356465D01*
X355195Y557907D01*
Y555368D01*
X356465Y554099D01*
X357734D01*
X359004Y555368D01*
Y559177D01*
X102997Y490093D02*
X95379D01*
Y493902D01*
X96649Y495171D01*
X99188D01*
X100458Y493902D01*
Y490093D01*
Y492632D02*
X102997Y495171D01*
Y501519D02*
X95379D01*
X99188Y497710D01*
Y502789D01*
X102997Y411353D02*
X95379D01*
Y415162D01*
X96649Y416431D01*
X99188D01*
X100458Y415162D01*
Y411353D01*
Y413892D02*
X102997Y416431D01*
X96649Y418971D02*
X95379Y420240D01*
Y422779D01*
X96649Y424049D01*
X97918D01*
X99188Y422779D01*
Y421510D01*
Y422779D01*
X100458Y424049D01*
X101727D01*
X102997Y422779D01*
Y420240D01*
X101727Y418971D01*
X101601Y22858D02*
X109219D01*
Y19049D01*
X107949Y17780D01*
X105410D01*
X104140Y19049D01*
Y22858D01*
Y20319D02*
X101601Y17780D01*
Y10162D02*
Y15240D01*
X106680Y10162D01*
X107949D01*
X109219Y11432D01*
Y13971D01*
X107949Y15240D01*
X40642Y100331D02*
Y107949D01*
X44450D01*
X45720Y106679D01*
Y104140D01*
X44450Y102870D01*
X40642D01*
X43181D02*
X45720Y100331D01*
X48259D02*
X50798D01*
X49529D01*
Y107949D01*
X48259Y106679D01*
X792479Y469898D02*
X784861D01*
Y464820D01*
Y462281D02*
Y459742D01*
Y461011D01*
X792479D01*
X791209Y462281D01*
X906655Y397127D02*
X905386Y395858D01*
Y393319D01*
X906655Y392049D01*
X911733D01*
X913003Y393319D01*
Y395858D01*
X911733Y397127D01*
X913003Y399666D02*
Y402206D01*
Y400936D01*
X905386D01*
X906655Y399666D01*
X913003Y409823D02*
X905386D01*
X909194Y406015D01*
Y411093D01*
X820295Y430387D02*
X819025Y429118D01*
Y426578D01*
X820295Y425309D01*
X825373D01*
X826643Y426578D01*
Y429118D01*
X825373Y430387D01*
X826643Y432926D02*
Y435466D01*
Y434196D01*
X819025D01*
X820295Y432926D01*
Y439274D02*
X819025Y440544D01*
Y443083D01*
X820295Y444353D01*
X821565D01*
X822834Y443083D01*
Y441813D01*
Y443083D01*
X824104Y444353D01*
X825373D01*
X826643Y443083D01*
Y440544D01*
X825373Y439274D01*
X820295Y372997D02*
X819025Y371728D01*
Y369189D01*
X820295Y367919D01*
X825373D01*
X826643Y369189D01*
Y371728D01*
X825373Y372997D01*
X826643Y375536D02*
Y378076D01*
Y376806D01*
X819025D01*
X820295Y375536D01*
X826643Y386963D02*
Y381884D01*
X821565Y386963D01*
X820295D01*
X819025Y385693D01*
Y383154D01*
X820295Y381884D01*
X692786Y509269D02*
X691516Y510539D01*
X688977D01*
X687708Y509269D01*
Y504191D01*
X688977Y502921D01*
X691516D01*
X692786Y504191D01*
X695325Y502921D02*
X697864D01*
X696595D01*
Y510539D01*
X695325Y509269D01*
X701673Y502921D02*
X704212D01*
X702943D01*
Y510539D01*
X701673Y509269D01*
X688976Y562609D02*
X687707Y563879D01*
X685168D01*
X683898Y562609D01*
Y557531D01*
X685168Y556261D01*
X687707D01*
X688976Y557531D01*
X691516Y556261D02*
X694055D01*
X692785D01*
Y563879D01*
X691516Y562609D01*
X697864D02*
X699133Y563879D01*
X701672D01*
X702942Y562609D01*
Y557531D01*
X701672Y556261D01*
X699133D01*
X697864Y557531D01*
Y562609D01*
X1015875Y483999D02*
X1017144Y482729D01*
X1019683D01*
X1020953Y483999D01*
Y489077D01*
X1019683Y490347D01*
X1017144D01*
X1015875Y489077D01*
X1013335D02*
X1012066Y490347D01*
X1009527D01*
X1008257Y489077D01*
Y483999D01*
X1009527Y482729D01*
X1012066D01*
X1013335Y483999D01*
Y485269D01*
X1012066Y486538D01*
X1008257D01*
X1016637Y532513D02*
X1017906Y531244D01*
X1020445D01*
X1021715Y532513D01*
Y537591D01*
X1020445Y538861D01*
X1017906D01*
X1016637Y537591D01*
X1014098Y532513D02*
X1012828Y531244D01*
X1010289D01*
X1009019Y532513D01*
Y533783D01*
X1010289Y535052D01*
X1009019Y536322D01*
Y537591D01*
X1010289Y538861D01*
X1012828D01*
X1014098Y537591D01*
Y536322D01*
X1012828Y535052D01*
X1014098Y533783D01*
Y532513D01*
X1012828Y535052D02*
X1010289D01*
X388491Y525655D02*
X389761Y526924D01*
Y529463D01*
X388491Y530733D01*
X383413D01*
X382143Y529463D01*
Y526924D01*
X383413Y525655D01*
X389761Y523116D02*
Y518037D01*
X388491D01*
X383413Y523116D01*
X382143D01*
X304150Y439291D02*
X302881Y440560D01*
X300341D01*
X299072Y439291D01*
Y434213D01*
X300341Y432943D01*
X302881D01*
X304150Y434213D01*
X311768Y440560D02*
X309229Y439291D01*
X306689Y436752D01*
Y434213D01*
X307959Y432943D01*
X310498D01*
X311768Y434213D01*
Y435482D01*
X310498Y436752D01*
X306689D01*
X303739Y469931D02*
X302470Y471200D01*
X299930D01*
X298661Y469931D01*
Y464853D01*
X299930Y463583D01*
X302470D01*
X303739Y464853D01*
X311357Y471200D02*
X306278D01*
Y467392D01*
X308817Y468661D01*
X310087D01*
X311357Y467392D01*
Y464853D01*
X310087Y463583D01*
X307548D01*
X306278Y464853D01*
X316213Y505077D02*
X314944Y506347D01*
X312405D01*
X311135Y505077D01*
Y499999D01*
X312405Y498729D01*
X314944D01*
X316213Y499999D01*
X322561Y498729D02*
Y506347D01*
X318753Y502538D01*
X323831D01*
X191133Y84457D02*
X192402Y85726D01*
Y88265D01*
X191133Y89535D01*
X186055D01*
X184785Y88265D01*
Y85726D01*
X186055Y84457D01*
X191133Y81917D02*
X192402Y80648D01*
Y78109D01*
X191133Y76839D01*
X189863D01*
X188594Y78109D01*
Y79378D01*
Y78109D01*
X187324Y76839D01*
X186055D01*
X184785Y78109D01*
Y80648D01*
X186055Y81917D01*
X98423Y102233D02*
X97154Y103503D01*
X94615D01*
X93345Y102233D01*
Y97155D01*
X94615Y95885D01*
X97154D01*
X98423Y97155D01*
X106041Y95885D02*
X100962D01*
X106041Y100963D01*
Y102233D01*
X104771Y103503D01*
X102232D01*
X100962Y102233D01*
X160019Y101600D02*
X161289Y102870D01*
Y105409D01*
X160019Y106678D01*
X154941D01*
X153671Y105409D01*
Y102870D01*
X154941Y101600D01*
X153671Y99061D02*
Y96522D01*
Y97791D01*
X161289D01*
X160019Y99061D01*
X775336Y497715D02*
X781684D01*
X782954Y498985D01*
Y501524D01*
X781684Y502793D01*
X775336D01*
X776606Y505333D02*
X775336Y506602D01*
Y509141D01*
X776606Y510411D01*
X777876D01*
X779145Y509141D01*
Y507872D01*
Y509141D01*
X780415Y510411D01*
X781684D01*
X782954Y509141D01*
Y506602D01*
X781684Y505333D01*
X1076692Y571749D02*
X1074153D01*
X1075423D01*
Y565401D01*
X1074153Y564131D01*
X1072884D01*
X1071614Y565401D01*
X1079232Y570479D02*
X1080501Y571749D01*
X1083040D01*
X1084310Y570479D01*
Y569210D01*
X1083040Y567940D01*
X1081771D01*
X1083040D01*
X1084310Y566670D01*
Y565401D01*
X1083040Y564131D01*
X1080501D01*
X1079232Y565401D01*
X78742Y134619D02*
Y128271D01*
X80011Y127001D01*
X82550D01*
X83820Y128271D01*
Y134619D01*
X86359Y127001D02*
X88898D01*
X87629D01*
Y134619D01*
X86359Y133349D01*
X400929Y490980D02*
X406008D01*
X403469D01*
Y483362D01*
X408547Y490980D02*
Y485902D01*
X411086Y483362D01*
X413625Y485902D01*
Y490980D01*
X421243Y489710D02*
X419973Y490980D01*
X417434D01*
X416164Y489710D01*
Y488441D01*
X417434Y487171D01*
X419973D01*
X421243Y485902D01*
Y484632D01*
X419973Y483362D01*
X417434D01*
X416164Y484632D01*
X423782Y483362D02*
X426321D01*
X425052D01*
Y490980D01*
X423782Y489710D01*
X20182Y582422D02*
X17642D01*
X18912D01*
Y576074D01*
X17642Y574804D01*
X16373D01*
X15103Y576074D01*
X27799Y574804D02*
X22721D01*
X27799Y579883D01*
Y581152D01*
X26529Y582422D01*
X23990D01*
X22721Y581152D01*
X198603Y582422D02*
X196064D01*
X197334D01*
Y576074D01*
X196064Y574804D01*
X194794D01*
X193525Y576074D01*
X201142Y574804D02*
X203682D01*
X202412D01*
Y582422D01*
X201142Y581152D01*
M02*
