M48
;Layer_Color=9474304
;FILE_FORMAT=4:4
METRIC,LZ
;TYPE=PLATED
T01F00S00C0.7112
T02F00S00C0.9500
T03F00S00C0.9906
T04F00S00C1.2954
;TYPE=NON_PLATED
T05F00S00C1.1000
T06F00S00C1.6000
T07F00S00C2.4000
%
T01
X0003683Y0003302
X0006096Y0002413
X0013081Y000254
X0013208Y0007747
X0013335Y0010541
X0008763Y000889
X0006731Y0010668
X0005207Y0012954
X0001651Y0012446
X0001778Y0008255
X0017018Y0006985
X0015621Y0002921
X0029337Y0011811
X0028829Y0014097
X0042037Y0011303
X004191Y0005842
X0045212Y0008128
X0095377Y0039116
Y0042418
X0098044Y004699
X01012344Y00462788
X01001776Y0048822
X0098425Y0053213
X0109347Y0045974
X0103759Y003937
X0087884Y0039116
Y0042545
X0081407
X0081026Y0038989
X0082423Y0049022
X0074676Y0045339
X0065532Y0042672
X0042799Y0043688
X0041148Y0042037
X0042545Y0047244
X0047244Y0048768
X0035814
X0035433Y0043053
X0029591Y0041783
X0029464Y0044831
Y0048133
X002667Y00379984
X00202451Y00385572
X0015367Y0034417
X0021082Y0027813
Y0025908
X00254Y0025527
X0024511Y003048
X0029337Y0032258
X002921Y0027686
X0029337Y0020955
X0028829Y0017399
X0021209Y0016637
X00419343Y00200903
X0044577Y0019558
X004699Y0018796
X004191Y0025654
Y0029718
X00438792Y00320943
X0019304Y0050927
X0003302Y0051054
X0002413Y0038481
X0001397Y0034417
X0007874Y0034798
X001016Y003556
X0011303Y0037338
X00079248Y00383794
X0013462Y0034544
X0009906Y0025146
X0010414Y0018415
X000762Y0018288
X0014478Y0055626
X0017018
X0019558
X0022098
X0024638
X0027178
X0029718
X0032258
X0046863Y0054737
X0077343Y0055372
T02
X0100497Y0009652
X0105497
T03
X0003048Y0055499
X0005588
X0008128
T04
X0108331Y0053467
X0113331
T05
X0035651Y0006592
T06
X0035651Y0031592
T07
X0083737Y0007091
Y0031136
M30
