M48
;Layer_Color=9474304
;FILE_FORMAT=4:4
METRIC,LZ
;TYPE=PLATED
T01F00S00C0.7112
T02F00S00C0.9500
T03F00S00C0.9906
T04F00S00C1.2954
;TYPE=NON_PLATED
T05F00S00C1.1000
T06F00S00C1.6000
T07F00S00C2.4000
%
T01
X0001905Y0003937
X0001397Y0012954
X0003683Y0012065
X0006477Y0011938
X0009525Y0012319
X0011811
X0013843Y0006604
X0011557Y0003937
X0021336Y0004445
X0029337Y0011811
X0028829Y0014097
X0042037Y0011303
X004191Y0005842
X0045212Y0008128
X0096647Y0039878
Y004318
X0102108Y0045847
X0106045Y0045593
X0104013Y0038354
X0098425Y0053213
X0088011Y0046633
Y0043204
Y004064
X0088138Y0037338
X0079502Y0044323
X0082423Y0049022
X0068961Y0053213
X0065532Y0042672
X004445Y0044958
X0042672Y0043815
X0042418Y004699
X0047244Y0048768
X0035814
X0035433Y0043053
X0029718Y0041783
X0029845Y0045339
X0029591Y0047879
X0019431Y0052197
X0014605Y0039243
X0015367Y0034417
X0021082Y0027813
Y0025908
X00254Y0025527
X0024511Y003048
X0029337Y0032258
X002921Y0027686
X0029337Y0020955
X0028829Y0017399
X0021209Y0016637
X00419343Y00200903
X0044577Y0019558
X004699Y0018796
X0043434Y0027686
X0042418Y0029718
X00438792Y00320943
X0013462Y0034544
X0013335Y0036576
X0010795Y0037465
X001016Y003556
X0007874Y0034798
X0004445Y0037338
X0003175Y0039116
X0001397Y0034417
X0009906Y0025146
X0010414Y0018415
X000762Y0018288
X0002921Y0052705
X001143Y0054991
X0014478Y0055626
X0017018
X0019558
X0022098
X0024638
X0027178
X0029718
X0032258
X0046863Y0054737
X0077343Y0055372
T02
X0100497Y0009652
X0105497
T03
X0003048Y0055499
X0005588
X0008128
T04
X0108331Y0053467
X0113331
T05
X0035651Y0006592
T06
X0035651Y0031592
T07
X0083737Y0007091
Y0031136
M30
