G04*
G04 #@! TF.GenerationSoftware,Altium Limited,Altium Designer,24.8.2 (39)*
G04*
G04 Layer_Color=128*
%FSLAX44Y44*%
%MOMM*%
G71*
G04*
G04 #@! TF.SameCoordinates,C4C63D13-D3AA-445C-89B5-11D78E456874*
G04*
G04*
G04 #@! TF.FilePolarity,Positive*
G04*
G01*
G75*
%ADD74C,0.1270*%
D74*
X348510Y315920D02*
X364510D01*
X356510Y307920D02*
Y323920D01*
X351010Y65920D02*
X362010D01*
X356510Y60420D02*
Y71420D01*
X825370Y70910D02*
X849370D01*
X837370Y58910D02*
Y82910D01*
X825370Y311360D02*
X849370D01*
X837370Y299360D02*
Y323360D01*
X1000220Y96520D02*
X1009720D01*
X1004970Y91770D02*
Y101270D01*
X1050220Y96520D02*
X1059720D01*
X1054970Y91770D02*
Y101270D01*
X1076833Y534670D02*
X1089787D01*
X1083310Y528193D02*
Y541147D01*
X1126833Y534670D02*
X1139787D01*
X1133310Y528193D02*
Y541147D01*
X141224Y556260D02*
X148336D01*
X144780Y552704D02*
Y559816D01*
X166624Y556260D02*
X173736D01*
X170180Y552704D02*
Y559816D01*
X192024Y556260D02*
X199136D01*
X195580Y552704D02*
Y559816D01*
X217424Y556260D02*
X224536D01*
X220980Y552704D02*
Y559816D01*
X293624Y556260D02*
X300736D01*
X297180Y552704D02*
Y559816D01*
X319024Y556260D02*
X326136D01*
X322580Y552704D02*
Y559816D01*
X268224Y556260D02*
X275336D01*
X271780Y552704D02*
Y559816D01*
X242824Y556260D02*
X249936D01*
X246380Y552704D02*
Y559816D01*
X50927Y554990D02*
X60833D01*
X55880Y550037D02*
Y559943D01*
X76327Y554990D02*
X86233D01*
X81280Y550037D02*
Y559943D01*
X25527Y554990D02*
X35433D01*
X30480Y550037D02*
Y559943D01*
X407924Y420370D02*
X415036D01*
X411480Y416814D02*
Y423926D01*
X424434Y436880D02*
X431546D01*
X427990Y433324D02*
Y440436D01*
X421894Y472440D02*
X429006D01*
X425450Y468884D02*
Y475996D01*
X468884Y487680D02*
X475996D01*
X472440Y484124D02*
Y491236D01*
X465074Y547370D02*
X472186D01*
X468630Y543814D02*
Y550926D01*
X651764Y426720D02*
X658876D01*
X655320Y423164D02*
Y430276D01*
X291084Y481330D02*
X298196D01*
X294640Y477774D02*
Y484886D01*
X291084Y448310D02*
X298196D01*
X294640Y444754D02*
Y451866D01*
X292354Y417830D02*
X299466D01*
X295910Y414274D02*
Y421386D01*
X354584Y487680D02*
X361696D01*
X358140Y484124D02*
Y491236D01*
X350774Y430530D02*
X357886D01*
X354330Y426974D02*
Y434086D01*
X820674Y490220D02*
X827786D01*
X824230Y486664D02*
Y493776D01*
X1089914Y459740D02*
X1097026D01*
X1093470Y456184D02*
Y463296D01*
X1008788Y462788D02*
X1015900D01*
X1012344Y459232D02*
Y466344D01*
X743204Y453390D02*
X750316D01*
X746760Y449834D02*
Y456946D01*
X976884Y469900D02*
X983996D01*
X980440Y466344D02*
Y473456D01*
X1034034Y393700D02*
X1041146D01*
X1037590Y390144D02*
Y397256D01*
X207264Y278130D02*
X214376D01*
X210820Y274574D02*
Y281686D01*
X95504Y251460D02*
X102616D01*
X99060Y247904D02*
Y255016D01*
X100584Y184150D02*
X107696D01*
X104140Y180594D02*
Y187706D01*
X72644Y182880D02*
X79756D01*
X76200Y179324D02*
Y186436D01*
X75184Y347980D02*
X82296D01*
X78740Y344424D02*
Y351536D01*
X98044Y355600D02*
X105156D01*
X101600Y352044D02*
Y359156D01*
X109474Y373380D02*
X116586D01*
X113030Y369824D02*
Y376936D01*
X150114Y344170D02*
X157226D01*
X153670Y340614D02*
Y347726D01*
X131064Y345440D02*
X138176D01*
X134620Y341884D02*
Y348996D01*
X48514Y129540D02*
X55626D01*
X52070Y125984D02*
Y133096D01*
X12954Y124460D02*
X20066D01*
X16510Y120904D02*
Y128016D01*
X14224Y82550D02*
X21336D01*
X17780Y78994D02*
Y86106D01*
X63754Y106680D02*
X70866D01*
X67310Y103124D02*
Y110236D01*
X84074Y88900D02*
X91186D01*
X87630Y85344D02*
Y92456D01*
X950214Y391160D02*
X957326D01*
X953770Y387604D02*
Y394716D01*
X950214Y424180D02*
X957326D01*
X953770Y420624D02*
Y427736D01*
X875284Y425450D02*
X882396D01*
X878840Y421894D02*
Y429006D01*
X875284Y391160D02*
X882396D01*
X878840Y387604D02*
Y394716D01*
X57404Y24130D02*
X64516D01*
X60960Y20574D02*
Y27686D01*
X166624Y69850D02*
X173736D01*
X170180Y66294D02*
Y73406D01*
X127254Y25400D02*
X134366D01*
X130810Y21844D02*
Y28956D01*
X129794Y105410D02*
X136906D01*
X133350Y101854D02*
Y108966D01*
X207264Y259080D02*
X214376D01*
X210820Y255524D02*
Y262636D01*
X241554Y304800D02*
X248666D01*
X245110Y301244D02*
Y308356D01*
X250444Y255270D02*
X257556D01*
X254000Y251714D02*
Y258826D01*
X208534Y166370D02*
X215646D01*
X212090Y162814D02*
Y169926D01*
X289814Y209550D02*
X296926D01*
X293370Y205994D02*
Y213106D01*
X442214Y195580D02*
X449326D01*
X445770Y192024D02*
Y199136D01*
X466344Y187960D02*
X473456D01*
X469900Y184404D02*
Y191516D01*
X448564Y81280D02*
X455676D01*
X452120Y77724D02*
Y84836D01*
X415787Y200903D02*
X422899D01*
X419343Y197347D02*
Y204459D01*
X416814Y113030D02*
X423926D01*
X420370Y109474D02*
Y116586D01*
X415544Y58420D02*
X422656D01*
X419100Y54864D02*
Y61976D01*
X289814Y118110D02*
X296926D01*
X293370Y114554D02*
Y121666D01*
X284734Y140970D02*
X291846D01*
X288290Y137414D02*
Y144526D01*
X284734Y173990D02*
X291846D01*
X288290Y170434D02*
Y177546D01*
X415544Y256540D02*
X422656D01*
X419100Y252984D02*
Y260096D01*
X415544Y297180D02*
X422656D01*
X419100Y293624D02*
Y300736D01*
X288544Y276860D02*
X295656D01*
X292100Y273304D02*
Y280416D01*
X289814Y322580D02*
X296926D01*
X293370Y319024D02*
Y326136D01*
X10414Y344170D02*
X17526D01*
X13970Y340614D02*
Y347726D01*
X20574Y384810D02*
X27686D01*
X24130Y381254D02*
Y388366D01*
X29464Y510540D02*
X36576D01*
X33020Y506984D02*
Y514096D01*
X189484Y509270D02*
X196596D01*
X193040Y505714D02*
Y512826D01*
X806704Y389890D02*
X813816D01*
X810260Y386334D02*
Y393446D01*
X810514Y425450D02*
X817626D01*
X814070Y421894D02*
Y429006D01*
X980694Y532130D02*
X987806D01*
X984250Y528574D02*
Y535686D01*
X769874Y553720D02*
X776986D01*
X773430Y550164D02*
Y557276D01*
X128524Y77470D02*
X135636D01*
X132080Y73914D02*
Y81026D01*
X152654Y29210D02*
X159766D01*
X156210Y25654D02*
Y32766D01*
X33274Y33020D02*
X40386D01*
X36830Y29464D02*
Y36576D01*
X435236Y320943D02*
X442348D01*
X438792Y317387D02*
Y324499D01*
X198895Y385572D02*
X206007D01*
X202451Y382016D02*
Y389128D01*
X998220Y488220D02*
X1005332D01*
X1001776Y484664D02*
Y491777D01*
X75692Y383794D02*
X82804D01*
X79248Y380238D02*
Y387350D01*
X263144Y379984D02*
X270256D01*
X266700Y376428D02*
Y383540D01*
M02*
