G04*
G04 #@! TF.GenerationSoftware,Altium Limited,Altium Designer,24.8.2 (39)*
G04*
G04 Layer_Color=16711935*
%FSLAX44Y44*%
%MOMM*%
G71*
G04*
G04 #@! TF.SameCoordinates,C4C63D13-D3AA-445C-89B5-11D78E456874*
G04*
G04*
G04 #@! TF.FilePolarity,Negative*
G04*
G01*
G75*
%ADD47C,1.5032*%
%ADD48C,1.1032*%
%ADD49C,2.6032*%
%ADD50R,1.4500X1.4500*%
%ADD51C,1.4500*%
%ADD52C,1.8034*%
%ADD53C,1.2700*%
%ADD54C,1.4986*%
%ADD55C,1.4732*%
D47*
X356510Y315920D02*
D03*
D48*
Y65920D02*
D03*
D49*
X837370Y70910D02*
D03*
Y311360D02*
D03*
D50*
X1004970Y96520D02*
D03*
D51*
X1054970D02*
D03*
D52*
X1083310Y534670D02*
D03*
X1133310D02*
D03*
D53*
X144780Y556260D02*
D03*
X170180D02*
D03*
X195580D02*
D03*
X220980D02*
D03*
X297180D02*
D03*
X322580D02*
D03*
X271780D02*
D03*
X246380D02*
D03*
D54*
X55880Y554990D02*
D03*
X81280D02*
D03*
X30480D02*
D03*
D55*
X411480Y420370D02*
D03*
X427990Y436880D02*
D03*
X425450Y472440D02*
D03*
X472440Y487680D02*
D03*
X468630Y547370D02*
D03*
X655320Y426720D02*
D03*
X294640Y481330D02*
D03*
Y448310D02*
D03*
X295910Y417830D02*
D03*
X358140Y487680D02*
D03*
X354330Y430530D02*
D03*
X824230Y490220D02*
D03*
X1093470Y459740D02*
D03*
X1012344Y462788D02*
D03*
X746760Y453390D02*
D03*
X980440Y469900D02*
D03*
X1037590Y393700D02*
D03*
X210820Y278130D02*
D03*
X99060Y251460D02*
D03*
X104140Y184150D02*
D03*
X76200Y182880D02*
D03*
X78740Y347980D02*
D03*
X101600Y355600D02*
D03*
X113030Y373380D02*
D03*
X153670Y344170D02*
D03*
X134620Y345440D02*
D03*
X52070Y129540D02*
D03*
X16510Y124460D02*
D03*
X17780Y82550D02*
D03*
X67310Y106680D02*
D03*
X87630Y88900D02*
D03*
X953770Y391160D02*
D03*
Y424180D02*
D03*
X878840Y425450D02*
D03*
Y391160D02*
D03*
X60960Y24130D02*
D03*
X170180Y69850D02*
D03*
X130810Y25400D02*
D03*
X133350Y105410D02*
D03*
X210820Y259080D02*
D03*
X245110Y304800D02*
D03*
X254000Y255270D02*
D03*
X212090Y166370D02*
D03*
X293370Y209550D02*
D03*
X445770Y195580D02*
D03*
X469900Y187960D02*
D03*
X452120Y81280D02*
D03*
X419343Y200903D02*
D03*
X420370Y113030D02*
D03*
X419100Y58420D02*
D03*
X293370Y118110D02*
D03*
X288290Y140970D02*
D03*
Y173990D02*
D03*
X419100Y256540D02*
D03*
Y297180D02*
D03*
X292100Y276860D02*
D03*
X293370Y322580D02*
D03*
X13970Y344170D02*
D03*
X24130Y384810D02*
D03*
X33020Y510540D02*
D03*
X193040Y509270D02*
D03*
X810260Y389890D02*
D03*
X814070Y425450D02*
D03*
X984250Y532130D02*
D03*
X773430Y553720D02*
D03*
X132080Y77470D02*
D03*
X156210Y29210D02*
D03*
X36830Y33020D02*
D03*
X438792Y320943D02*
D03*
X202451Y385572D02*
D03*
X1001776Y488220D02*
D03*
X79248Y383794D02*
D03*
X266700Y379984D02*
D03*
M02*
