G04*
G04 #@! TF.GenerationSoftware,Altium Limited,Altium Designer,24.8.2 (39)*
G04*
G04 Layer_Color=8388736*
%FSLAX44Y44*%
%MOMM*%
G71*
G04*
G04 #@! TF.SameCoordinates,C4C63D13-D3AA-445C-89B5-11D78E456874*
G04*
G04*
G04 #@! TF.FilePolarity,Negative*
G04*
G01*
G75*
%ADD18R,1.5562X1.5544*%
%ADD19R,1.3500X0.9500*%
%ADD20R,0.6000X0.8000*%
%ADD21R,0.8000X0.8500*%
%ADD22R,0.4200X1.4000*%
%ADD23R,0.8700X1.4000*%
%ADD24R,0.4000X1.5000*%
%ADD25R,0.6500X0.9000*%
%ADD26R,0.7500X0.9000*%
%ADD27R,1.6038X2.8550*%
%ADD28R,0.9000X0.7500*%
%ADD29R,1.6038X1.8582*%
%ADD30R,0.9779X0.6096*%
%ADD31R,2.8550X1.6038*%
%ADD32R,0.8890X1.4986*%
%ADD33R,1.4986X0.8890*%
%ADD34R,0.8890X0.8890*%
%ADD35R,0.8582X0.8061*%
%ADD38R,2.8042X0.9531*%
%ADD39R,0.9500X1.3500*%
%ADD41R,0.8636X2.0066*%
G04:AMPARAMS|DCode=42|XSize=2.3531mm|YSize=0.6221mm|CornerRadius=0.3111mm|HoleSize=0mm|Usage=FLASHONLY|Rotation=180.000|XOffset=0mm|YOffset=0mm|HoleType=Round|Shape=RoundedRectangle|*
%AMROUNDEDRECTD42*
21,1,2.3531,0.0000,0,0,180.0*
21,1,1.7310,0.6221,0,0,180.0*
1,1,0.6221,-0.8655,0.0000*
1,1,0.6221,0.8655,0.0000*
1,1,0.6221,0.8655,0.0000*
1,1,0.6221,-0.8655,0.0000*
%
%ADD42ROUNDEDRECTD42*%
%ADD43R,2.3531X0.6221*%
%ADD44R,2.2032X0.8032*%
%ADD45R,3.4032X2.5032*%
%ADD46R,2.1032X1.7032*%
%ADD47C,1.5032*%
%ADD48C,1.1032*%
%ADD49C,2.6032*%
%ADD50R,1.4500X1.4500*%
%ADD51C,1.4500*%
%ADD52C,1.8034*%
%ADD53C,1.2700*%
%ADD54C,1.4986*%
%ADD55C,1.4732*%
D18*
X720090Y462542D02*
D03*
D19*
Y480060D02*
D03*
X36830Y67190D02*
D03*
Y52190D02*
D03*
X133350Y59570D02*
D03*
Y44570D02*
D03*
X720090Y534670D02*
D03*
Y519670D02*
D03*
D20*
X592470Y480640D02*
D03*
X567070D02*
D03*
X541670D02*
D03*
X516270D02*
D03*
X592470Y556840D02*
D03*
X567070D02*
D03*
X541670D02*
D03*
X516270D02*
D03*
D21*
X609870Y413640D02*
D03*
D22*
X631270Y427440D02*
D03*
Y490040D02*
D03*
X488970D02*
D03*
Y431440D02*
D03*
D23*
X490570Y553540D02*
D03*
X629570D02*
D03*
D24*
X625470Y528840D02*
D03*
D25*
X274690Y417830D02*
D03*
X260190D02*
D03*
X259820Y481330D02*
D03*
X274320D02*
D03*
X260190Y447185D02*
D03*
X274690D02*
D03*
D26*
X330470Y447200D02*
D03*
X318470D02*
D03*
Y416560D02*
D03*
X330470D02*
D03*
X318470Y480060D02*
D03*
X330470D02*
D03*
X1015650Y506730D02*
D03*
X1003650D02*
D03*
D27*
X1095224Y427990D02*
D03*
X1124736D02*
D03*
X919964Y549910D02*
D03*
X949476D02*
D03*
X826770Y534670D02*
D03*
D28*
X365760Y513430D02*
D03*
Y525430D02*
D03*
D29*
X385294Y560070D02*
D03*
X414806D02*
D03*
D30*
X377508Y449580D02*
D03*
X404813Y459080D02*
D03*
Y449580D02*
D03*
Y440080D02*
D03*
X377508D02*
D03*
Y459080D02*
D03*
D31*
X1005840Y427506D02*
D03*
Y397994D02*
D03*
D32*
X38370Y149720D02*
D03*
X51070D02*
D03*
X63770D02*
D03*
X76470D02*
D03*
X89170D02*
D03*
X101870D02*
D03*
X114570D02*
D03*
X127270D02*
D03*
X139970D02*
D03*
X152670D02*
D03*
X165370D02*
D03*
X178070D02*
D03*
Y324720D02*
D03*
X165370D02*
D03*
X152670D02*
D03*
X139970D02*
D03*
X127270D02*
D03*
X114570D02*
D03*
X101870D02*
D03*
X89170D02*
D03*
X76470D02*
D03*
X63770D02*
D03*
X51070D02*
D03*
X38370D02*
D03*
X25670D02*
D03*
Y149720D02*
D03*
X12970D02*
D03*
Y324720D02*
D03*
D33*
X190570Y167370D02*
D03*
Y180070D02*
D03*
Y192770D02*
D03*
Y205470D02*
D03*
Y218170D02*
D03*
Y230870D02*
D03*
Y243570D02*
D03*
Y256270D02*
D03*
Y268970D02*
D03*
Y281670D02*
D03*
Y294370D02*
D03*
Y307070D02*
D03*
D34*
X76170Y208220D02*
D03*
X90170Y222220D02*
D03*
X76170D02*
D03*
X90170Y208220D02*
D03*
X76170Y236220D02*
D03*
X90170D02*
D03*
X104170Y208220D02*
D03*
Y236220D02*
D03*
Y222220D02*
D03*
D35*
X38100Y110151D02*
D03*
Y98129D02*
D03*
X173990Y42249D02*
D03*
Y54271D02*
D03*
X110490Y98129D02*
D03*
Y110151D02*
D03*
X44450Y362289D02*
D03*
Y374311D02*
D03*
X184150Y362289D02*
D03*
Y374311D02*
D03*
D38*
X90170Y68820D02*
D03*
Y35320D02*
D03*
X924560Y390920D02*
D03*
Y424420D02*
D03*
X779780Y390920D02*
D03*
Y424420D02*
D03*
X849630Y390920D02*
D03*
Y424420D02*
D03*
D39*
X1015880Y557530D02*
D03*
X1000880D02*
D03*
D41*
X147680Y485521D02*
D03*
X192680D02*
D03*
Y408559D02*
D03*
X147680D02*
D03*
X78380D02*
D03*
X33380D02*
D03*
Y485521D02*
D03*
X78380D02*
D03*
D42*
X851535Y528320D02*
D03*
Y541020D02*
D03*
Y553720D02*
D03*
X802004D02*
D03*
Y541020D02*
D03*
Y528320D02*
D03*
Y515620D02*
D03*
D43*
X851535D02*
D03*
D44*
X397510Y208920D02*
D03*
Y144920D02*
D03*
Y176920D02*
D03*
Y296920D02*
D03*
Y120920D02*
D03*
Y80920D02*
D03*
X315510Y276920D02*
D03*
Y252920D02*
D03*
Y196920D02*
D03*
Y140920D02*
D03*
Y172920D02*
D03*
Y164920D02*
D03*
Y108920D02*
D03*
Y132920D02*
D03*
X397510Y304920D02*
D03*
Y72920D02*
D03*
X315510Y116920D02*
D03*
Y124920D02*
D03*
Y212920D02*
D03*
Y260920D02*
D03*
Y268920D02*
D03*
Y284920D02*
D03*
Y292920D02*
D03*
Y300920D02*
D03*
Y308920D02*
D03*
Y204920D02*
D03*
Y188920D02*
D03*
Y180920D02*
D03*
Y156920D02*
D03*
Y148920D02*
D03*
Y100920D02*
D03*
Y92920D02*
D03*
Y84920D02*
D03*
Y76920D02*
D03*
X397510Y88920D02*
D03*
Y96920D02*
D03*
Y104920D02*
D03*
Y112920D02*
D03*
Y128920D02*
D03*
Y136920D02*
D03*
Y152920D02*
D03*
Y160920D02*
D03*
Y168920D02*
D03*
Y184920D02*
D03*
Y192920D02*
D03*
Y200920D02*
D03*
Y288920D02*
D03*
Y280920D02*
D03*
Y272920D02*
D03*
Y264920D02*
D03*
Y256920D02*
D03*
Y248920D02*
D03*
D45*
X321510Y337420D02*
D03*
Y44420D02*
D03*
D46*
X957580Y471410D02*
D03*
Y501410D02*
D03*
D47*
X356510Y315920D02*
D03*
D48*
Y65920D02*
D03*
D49*
X837370Y70910D02*
D03*
Y311360D02*
D03*
D50*
X1004970Y96520D02*
D03*
D51*
X1054970D02*
D03*
D52*
X1083310Y534670D02*
D03*
X1133310D02*
D03*
D53*
X144780Y556260D02*
D03*
X170180D02*
D03*
X195580D02*
D03*
X220980D02*
D03*
X297180D02*
D03*
X322580D02*
D03*
X271780D02*
D03*
X246380D02*
D03*
D54*
X55880Y554990D02*
D03*
X81280D02*
D03*
X30480D02*
D03*
D55*
X411480Y420370D02*
D03*
X427990Y436880D02*
D03*
X425450Y472440D02*
D03*
X472440Y487680D02*
D03*
X468630Y547370D02*
D03*
X655320Y426720D02*
D03*
X294640Y481330D02*
D03*
Y448310D02*
D03*
X295910Y417830D02*
D03*
X358140Y487680D02*
D03*
X354330Y430530D02*
D03*
X824230Y490220D02*
D03*
X1093470Y459740D02*
D03*
X1012344Y462788D02*
D03*
X746760Y453390D02*
D03*
X980440Y469900D02*
D03*
X1037590Y393700D02*
D03*
X210820Y278130D02*
D03*
X99060Y251460D02*
D03*
X104140Y184150D02*
D03*
X76200Y182880D02*
D03*
X78740Y347980D02*
D03*
X101600Y355600D02*
D03*
X113030Y373380D02*
D03*
X153670Y344170D02*
D03*
X134620Y345440D02*
D03*
X52070Y129540D02*
D03*
X16510Y124460D02*
D03*
X17780Y82550D02*
D03*
X67310Y106680D02*
D03*
X87630Y88900D02*
D03*
X953770Y391160D02*
D03*
Y424180D02*
D03*
X878840Y425450D02*
D03*
Y391160D02*
D03*
X60960Y24130D02*
D03*
X170180Y69850D02*
D03*
X130810Y25400D02*
D03*
X133350Y105410D02*
D03*
X210820Y259080D02*
D03*
X245110Y304800D02*
D03*
X254000Y255270D02*
D03*
X212090Y166370D02*
D03*
X293370Y209550D02*
D03*
X445770Y195580D02*
D03*
X469900Y187960D02*
D03*
X452120Y81280D02*
D03*
X419343Y200903D02*
D03*
X420370Y113030D02*
D03*
X419100Y58420D02*
D03*
X293370Y118110D02*
D03*
X288290Y140970D02*
D03*
Y173990D02*
D03*
X419100Y256540D02*
D03*
Y297180D02*
D03*
X292100Y276860D02*
D03*
X293370Y322580D02*
D03*
X13970Y344170D02*
D03*
X24130Y384810D02*
D03*
X33020Y510540D02*
D03*
X193040Y509270D02*
D03*
X810260Y389890D02*
D03*
X814070Y425450D02*
D03*
X984250Y532130D02*
D03*
X773430Y553720D02*
D03*
X132080Y77470D02*
D03*
X156210Y29210D02*
D03*
X36830Y33020D02*
D03*
X438792Y320943D02*
D03*
X202451Y385572D02*
D03*
X1001776Y488220D02*
D03*
X79248Y383794D02*
D03*
X266700Y379984D02*
D03*
M02*
