G04*
G04 #@! TF.GenerationSoftware,Altium Limited,Altium Designer,24.8.2 (39)*
G04*
G04 Layer_Physical_Order=4*
G04 Layer_Color=16711680*
%FSLAX44Y44*%
%MOMM*%
G71*
G04*
G04 #@! TF.SameCoordinates,C4C63D13-D3AA-445C-89B5-11D78E456874*
G04*
G04*
G04 #@! TF.FilePolarity,Positive*
G04*
G01*
G75*
%ADD50R,1.4500X1.4500*%
%ADD51C,1.4500*%
%ADD52C,1.8034*%
%ADD53C,1.2700*%
%ADD54C,1.4986*%
%ADD56C,0.2032*%
%ADD58C,1.3000*%
%ADD59C,0.9000*%
%ADD60C,2.4000*%
D50*
X1004970Y96520D02*
D03*
D51*
X1054970D02*
D03*
D52*
X1083310Y534670D02*
D03*
X1133310D02*
D03*
D53*
X144780Y556260D02*
D03*
X170180D02*
D03*
X195580D02*
D03*
X220980D02*
D03*
X297180D02*
D03*
X322580D02*
D03*
X271780D02*
D03*
X246380D02*
D03*
X411480Y420370D02*
D03*
X427990Y436880D02*
D03*
X425450Y472440D02*
D03*
X472440Y487680D02*
D03*
X468630Y547370D02*
D03*
X655320Y426720D02*
D03*
X294640Y481330D02*
D03*
Y448310D02*
D03*
X295910Y417830D02*
D03*
X358140Y487680D02*
D03*
X354330Y430530D02*
D03*
X824230Y490220D02*
D03*
X1093470Y459740D02*
D03*
X1012344Y462788D02*
D03*
X746760Y453390D02*
D03*
X980440Y469900D02*
D03*
X1037590Y393700D02*
D03*
X210820Y278130D02*
D03*
X99060Y251460D02*
D03*
X104140Y184150D02*
D03*
X76200Y182880D02*
D03*
X78740Y347980D02*
D03*
X101600Y355600D02*
D03*
X113030Y373380D02*
D03*
X153670Y344170D02*
D03*
X134620Y345440D02*
D03*
X52070Y129540D02*
D03*
X16510Y124460D02*
D03*
X17780Y82550D02*
D03*
X67310Y106680D02*
D03*
X87630Y88900D02*
D03*
X953770Y391160D02*
D03*
Y424180D02*
D03*
X878840Y425450D02*
D03*
Y391160D02*
D03*
X60960Y24130D02*
D03*
X170180Y69850D02*
D03*
X130810Y25400D02*
D03*
X133350Y105410D02*
D03*
X210820Y259080D02*
D03*
X245110Y304800D02*
D03*
X254000Y255270D02*
D03*
X212090Y166370D02*
D03*
X293370Y209550D02*
D03*
X445770Y195580D02*
D03*
X469900Y187960D02*
D03*
X452120Y81280D02*
D03*
X419343Y200903D02*
D03*
X420370Y113030D02*
D03*
X419100Y58420D02*
D03*
X293370Y118110D02*
D03*
X288290Y140970D02*
D03*
Y173990D02*
D03*
X419100Y256540D02*
D03*
Y297180D02*
D03*
X292100Y276860D02*
D03*
X293370Y322580D02*
D03*
X13970Y344170D02*
D03*
X24130Y384810D02*
D03*
X33020Y510540D02*
D03*
X193040Y509270D02*
D03*
X810260Y389890D02*
D03*
X814070Y425450D02*
D03*
X984250Y532130D02*
D03*
X773430Y553720D02*
D03*
X132080Y77470D02*
D03*
X156210Y29210D02*
D03*
X36830Y33020D02*
D03*
X438792Y320943D02*
D03*
X202451Y385572D02*
D03*
X1001776Y488220D02*
D03*
X79248Y383794D02*
D03*
X266700Y379984D02*
D03*
D54*
X55880Y554990D02*
D03*
X81280D02*
D03*
X30480D02*
D03*
D56*
X280167Y353064D02*
G03*
X280416Y353060I249J8632D01*
G01*
X280167Y353064D02*
G03*
X280416Y353060I249J8632D01*
G01*
X280167Y353064D02*
G03*
X280416Y353060I249J8632D01*
G01*
X280167Y353064D02*
G03*
X280416Y353060I249J8632D01*
G01*
X280167Y353064D02*
G03*
X280416Y353060I249J8632D01*
G01*
X280167Y353064D02*
G03*
X280416Y353060I249J8632D01*
G01*
X280167Y353064D02*
G03*
X280416Y353060I249J8632D01*
G01*
X280167Y353064D02*
G03*
X280416Y353060I249J8632D01*
G01*
X280167Y353064D02*
G03*
X280416Y353060I249J8632D01*
G01*
X280167Y353064D02*
G03*
X280416Y353060I249J8632D01*
G01*
X280167Y353064D02*
G03*
X280416Y353060I249J8632D01*
G01*
X280167Y353064D02*
G03*
X280416Y353060I249J8632D01*
G01*
X280167Y353064D02*
G03*
X280416Y353060I249J8632D01*
G01*
X280167Y353064D02*
G03*
X280416Y353060I249J8632D01*
G01*
X280167Y353064D02*
G03*
X280416Y353060I249J8632D01*
G01*
X280167Y353064D02*
G03*
X280416Y353060I249J8632D01*
G01*
X280167Y353064D02*
G03*
X280416Y353060I249J8632D01*
G01*
X280167Y353064D02*
G03*
X280416Y353060I249J8632D01*
G01*
X280167Y353064D02*
G03*
X280416Y353060I249J8632D01*
G01*
X280167Y353064D02*
G03*
X280416Y353060I249J8632D01*
G01*
X280167Y353064D02*
G03*
X280416Y353060I249J8632D01*
G01*
X280167Y353064D02*
G03*
X280416Y353060I249J8632D01*
G01*
X280167Y353064D02*
G03*
X280416Y353060I249J8632D01*
G01*
X280167Y353064D02*
G03*
X280416Y353060I249J8632D01*
G01*
X280167Y353064D02*
G03*
X280416Y353060I249J8632D01*
G01*
X280167Y353064D02*
G03*
X280416Y353060I249J8632D01*
G01*
X280167Y353064D02*
G03*
X280416Y353060I249J8632D01*
G01*
X280167Y353064D02*
G03*
X280416Y353060I249J8632D01*
G01*
X280167Y353064D02*
G03*
X280416Y353060I249J8632D01*
G01*
X280167Y353064D02*
G03*
X280416Y353060I249J8632D01*
G01*
X280167Y353064D02*
G03*
X280416Y353060I249J8632D01*
G01*
X280167Y353064D02*
G03*
X280416Y353060I249J8632D01*
G01*
X280167Y353064D02*
G03*
X280416Y353060I249J8632D01*
G01*
X280167Y353064D02*
G03*
X280416Y353060I249J8632D01*
G01*
X280167Y353064D02*
G03*
X280416Y353060I249J8632D01*
G01*
X280167Y353064D02*
G03*
X280416Y353060I249J8632D01*
G01*
X280167Y353064D02*
G03*
X280416Y353060I249J8632D01*
G01*
X280167Y353064D02*
G03*
X280416Y353060I249J8632D01*
G01*
X280167Y353064D02*
G03*
X280416Y353060I249J8632D01*
G01*
X280167Y353064D02*
G03*
X280416Y353060I249J8632D01*
G01*
X280167Y353064D02*
G03*
X280416Y353060I249J8632D01*
G01*
X280167Y353064D02*
G03*
X280416Y353060I249J8632D01*
G01*
X280167Y353064D02*
G03*
X280416Y353060I249J8632D01*
G01*
X280167Y353064D02*
G03*
X280416Y353060I249J8632D01*
G01*
X280167Y353064D02*
G03*
X280416Y353060I249J8632D01*
G01*
X280167Y353064D02*
G03*
X280416Y353060I249J8632D01*
G01*
X280167Y353064D02*
G03*
X280416Y353060I249J8632D01*
G01*
X280167Y353064D02*
G03*
X280416Y353060I249J8632D01*
G01*
X280167Y353064D02*
G03*
X280416Y353060I249J8632D01*
G01*
X280167Y353064D02*
G03*
X280416Y353060I249J8632D01*
G01*
X280167Y353064D02*
G03*
X280416Y353060I249J8632D01*
G01*
X280167Y353064D02*
G03*
X280416Y353060I249J8632D01*
G01*
X280167Y353064D02*
G03*
X280416Y353060I249J8632D01*
G01*
X280167Y353064D02*
G03*
X280416Y353060I249J8632D01*
G01*
X280167Y353064D02*
G03*
X280416Y353060I249J8632D01*
G01*
X280167Y353064D02*
G03*
X280416Y353060I249J8632D01*
G01*
X280167Y353064D02*
G03*
X280416Y353060I249J8632D01*
G01*
X280167Y353064D02*
G03*
X280416Y353060I249J8632D01*
G01*
X280167Y353064D02*
G03*
X280416Y353060I249J8632D01*
G01*
X280167Y353064D02*
G03*
X280416Y353060I249J8632D01*
G01*
X280167Y353064D02*
G03*
X280416Y353060I249J8632D01*
G01*
X280167Y353064D02*
G03*
X280416Y353060I249J8632D01*
G01*
X280167Y353064D02*
G03*
X280416Y353060I249J8632D01*
G01*
X280167Y353064D02*
G03*
X280416Y353060I249J8632D01*
G01*
X280167Y353064D02*
G03*
X280416Y353060I249J8632D01*
G01*
X280167Y353064D02*
G03*
X280416Y353060I249J8632D01*
G01*
X280167Y353064D02*
G03*
X280416Y353060I249J8632D01*
G01*
X280167Y353064D02*
G03*
X280416Y353060I249J8632D01*
G01*
X280167Y353064D02*
G03*
X280416Y353060I249J8632D01*
G01*
X280167Y353064D02*
G03*
X280416Y353060I249J8632D01*
G01*
X280167Y353064D02*
G03*
X280416Y353060I249J8632D01*
G01*
X280167Y353064D02*
G03*
X280416Y353060I249J8632D01*
G01*
X142988Y347575D02*
G03*
X132658Y355600I-10330J-2635D01*
G01*
X142988Y347575D02*
G03*
X132658Y355600I-10330J-2635D01*
G01*
X142988Y347575D02*
G03*
X132658Y355600I-10330J-2635D01*
G01*
X142988Y347575D02*
G03*
X132658Y355600I-10330J-2635D01*
G01*
X142988Y347575D02*
G03*
X132658Y355600I-10330J-2635D01*
G01*
X142988Y347575D02*
G03*
X132658Y355600I-10330J-2635D01*
G01*
X142988Y347575D02*
G03*
X132658Y355600I-10330J-2635D01*
G01*
X142988Y347575D02*
G03*
X132658Y355600I-10330J-2635D01*
G01*
X142988Y347575D02*
G03*
X132658Y355600I-10330J-2635D01*
G01*
X142988Y347575D02*
G03*
X132658Y355600I-10330J-2635D01*
G01*
X142988Y347575D02*
G03*
X132658Y355600I-10330J-2635D01*
G01*
X142988Y347575D02*
G03*
X132658Y355600I-10330J-2635D01*
G01*
X142988Y347575D02*
G03*
X132658Y355600I-10330J-2635D01*
G01*
X142988Y347575D02*
G03*
X132658Y355600I-10330J-2635D01*
G01*
X142988Y347575D02*
G03*
X132658Y355600I-10330J-2635D01*
G01*
X142988Y347575D02*
G03*
X132658Y355600I-10330J-2635D01*
G01*
X142988Y347575D02*
G03*
X132658Y355600I-10330J-2635D01*
G01*
X142988Y347575D02*
G03*
X132658Y355600I-10330J-2635D01*
G01*
X142988Y347575D02*
G03*
X132658Y355600I-10330J-2635D01*
G01*
X142988Y347575D02*
G03*
X132658Y355600I-10330J-2635D01*
G01*
X142988Y347575D02*
G03*
X132658Y355600I-10330J-2635D01*
G01*
X142988Y347575D02*
G03*
X132658Y355600I-10330J-2635D01*
G01*
X142988Y347575D02*
G03*
X132658Y355600I-10330J-2635D01*
G01*
X142988Y347575D02*
G03*
X132658Y355600I-10330J-2635D01*
G01*
X142988Y347575D02*
G03*
X132658Y355600I-10330J-2635D01*
G01*
X142988Y347575D02*
G03*
X132658Y355600I-10330J-2635D01*
G01*
X142988Y347575D02*
G03*
X132658Y355600I-10330J-2635D01*
G01*
X142988Y347575D02*
G03*
X132658Y355600I-10330J-2635D01*
G01*
X142988Y347575D02*
G03*
X132658Y355600I-10330J-2635D01*
G01*
X142988Y347575D02*
G03*
X132658Y355600I-10330J-2635D01*
G01*
X142988Y347575D02*
G03*
X132658Y355600I-10330J-2635D01*
G01*
X142988Y347575D02*
G03*
X132658Y355600I-10330J-2635D01*
G01*
X142988Y347575D02*
G03*
X132658Y355600I-10330J-2635D01*
G01*
X142988Y347575D02*
G03*
X132658Y355600I-10330J-2635D01*
G01*
X142988Y347575D02*
G03*
X132658Y355600I-10330J-2635D01*
G01*
X142988Y347575D02*
G03*
X132658Y355600I-10330J-2635D01*
G01*
X142988Y347575D02*
G03*
X132658Y355600I-10330J-2635D01*
G01*
X142988Y347575D02*
G03*
X132658Y355600I-10330J-2635D01*
G01*
X142988Y347575D02*
G03*
X132658Y355600I-10330J-2635D01*
G01*
X142988Y347575D02*
G03*
X132658Y355600I-10330J-2635D01*
G01*
X142988Y347575D02*
G03*
X132658Y355600I-10330J-2635D01*
G01*
X142988Y347575D02*
G03*
X132658Y355600I-10330J-2635D01*
G01*
X142988Y347575D02*
G03*
X132658Y355600I-10330J-2635D01*
G01*
X142988Y347575D02*
G03*
X132658Y355600I-10330J-2635D01*
G01*
X142988Y347575D02*
G03*
X132658Y355600I-10330J-2635D01*
G01*
X142988Y347575D02*
G03*
X132658Y355600I-10330J-2635D01*
G01*
X142988Y347575D02*
G03*
X132658Y355600I-10330J-2635D01*
G01*
X142988Y347575D02*
G03*
X132658Y355600I-10330J-2635D01*
G01*
X142988Y347575D02*
G03*
X132658Y355600I-10330J-2635D01*
G01*
X142988Y347575D02*
G03*
X132658Y355600I-10330J-2635D01*
G01*
X142988Y347575D02*
G03*
X132658Y355600I-10330J-2635D01*
G01*
X142988Y347575D02*
G03*
X132658Y355600I-10330J-2635D01*
G01*
X142988Y347575D02*
G03*
X132658Y355600I-10330J-2635D01*
G01*
X142988Y347575D02*
G03*
X132658Y355600I-10330J-2635D01*
G01*
X142988Y347575D02*
G03*
X132658Y355600I-10330J-2635D01*
G01*
X142988Y347575D02*
G03*
X132658Y355600I-10330J-2635D01*
G01*
X142988Y347575D02*
G03*
X132658Y355600I-10330J-2635D01*
G01*
X142988Y347575D02*
G03*
X132658Y355600I-10330J-2635D01*
G01*
X142988Y347575D02*
G03*
X132658Y355600I-10330J-2635D01*
G01*
X142988Y347575D02*
G03*
X132658Y355600I-10330J-2635D01*
G01*
X142988Y347575D02*
G03*
X132658Y355600I-10330J-2635D01*
G01*
X142988Y347575D02*
G03*
X132658Y355600I-10330J-2635D01*
G01*
X142988Y347575D02*
G03*
X132658Y355600I-10330J-2635D01*
G01*
X142988Y347575D02*
G03*
X132658Y355600I-10330J-2635D01*
G01*
X142988Y347575D02*
G03*
X132658Y355600I-10330J-2635D01*
G01*
X142988Y347575D02*
G03*
X132658Y355600I-10330J-2635D01*
G01*
X142988Y347575D02*
G03*
X132658Y355600I-10330J-2635D01*
G01*
X142988Y347575D02*
G03*
X132658Y355600I-10330J-2635D01*
G01*
X142988Y347575D02*
G03*
X132658Y355600I-10330J-2635D01*
G01*
X142988Y347575D02*
G03*
X132658Y355600I-10330J-2635D01*
G01*
X142988Y347575D02*
G03*
X132658Y355600I-10330J-2635D01*
G01*
X142988Y347575D02*
G03*
X132658Y355600I-10330J-2635D01*
G01*
X279372Y353123D02*
G03*
X280167Y353064I1044J8573D01*
G01*
X393700Y402590D02*
X411480Y420370D01*
X311150Y402590D02*
X393700D01*
X295910Y417830D02*
X311150Y402590D01*
X405130Y459740D02*
X427990Y436880D01*
X306070Y459740D02*
X405130D01*
X424180Y471170D02*
X425450Y472440D01*
X304800Y471170D02*
X424180D01*
X294640Y481330D02*
X304800Y471170D01*
X294640Y448310D02*
X306070Y459740D01*
X280416Y353060D02*
X319532D01*
X132658Y355600D02*
X132659D01*
X101600D02*
X132658D01*
X921412Y553720D02*
X1012344Y462788D01*
X773430Y553720D02*
X921412D01*
X346202Y262716D02*
X347392Y261525D01*
X319532Y353060D02*
X346202Y326390D01*
X142240Y209550D02*
X293370D01*
X220724Y282954D02*
X242570Y304800D01*
X210820Y278130D02*
X213707D01*
X218530Y282954D01*
X220724D01*
X134620Y257810D02*
Y345440D01*
X134501Y257691D02*
X134620Y257810D01*
X134501Y257691D02*
X154148Y238044D01*
X118110Y264160D02*
X134620Y247650D01*
Y217170D02*
Y247650D01*
Y217170D02*
X142240Y209550D01*
X71120Y264160D02*
X118110D01*
X67310Y267970D02*
X71120Y264160D01*
X67310Y267970D02*
Y336550D01*
X78740Y347980D01*
X113030Y373380D02*
X279372Y353124D01*
X170975Y241346D02*
X278166D01*
X153670Y330200D02*
X161290Y322580D01*
X293370D01*
X153670Y330200D02*
Y344170D01*
X142988Y347575D02*
X169785Y242537D01*
X170975Y241346D01*
X46990Y137507D02*
Y351536D01*
Y137507D02*
X52070Y132427D01*
Y129540D02*
Y132427D01*
X46990Y351536D02*
X79248Y383794D01*
X154148Y238044D02*
X295356D01*
X170180Y69850D02*
X212090Y111760D01*
Y164322D01*
X212725Y257175D02*
X252095D01*
X210820Y259080D02*
X212725Y257175D01*
X252095D02*
X254000Y255270D01*
X242570Y304800D02*
X245110D01*
X278166Y241346D02*
X278189Y241370D01*
X296553D01*
X296863Y241268D01*
X419343Y200903D01*
X212090Y164322D02*
X285480Y90932D01*
X212090Y164322D02*
Y166370D01*
X445245Y195580D02*
X445770D01*
X347392Y261525D02*
X445245Y195580D01*
X346202Y262716D02*
Y326390D01*
X295356Y238044D02*
X420370Y113030D01*
X285480Y90932D02*
X612394D01*
X392615Y279341D02*
X396299D01*
X371856Y300100D02*
X392615Y279341D01*
X396299D02*
X419100Y256540D01*
X612394Y90932D02*
X617982Y96520D01*
X1004970D01*
X371856Y300100D02*
Y343154D01*
X335026Y379984D02*
X371856Y343154D01*
X266700Y379984D02*
X335026D01*
D58*
X356510Y315920D02*
D03*
D59*
Y65920D02*
D03*
D60*
X837370Y70910D02*
D03*
Y311360D02*
D03*
M02*
